<?xml version="1.0" encoding="UTF-8"?>
<!DOCTYPE svg PUBLIC "-//W3C//DTD SVG 1.1//EN" "http://www.w3.org/Graphics/SVG/1.1/DTD/svg11.dtd">
<!-- Creator: CorelDRAW 2020 (64-Bit) -->
<svg xmlns="http://www.w3.org/2000/svg" xml:space="preserve" width="251.348mm" height="216.566mm" version="1.1" style="shape-rendering:geometricPrecision; text-rendering:geometricPrecision; image-rendering:optimizeQuality; fill-rule:evenodd; clip-rule:evenodd"
viewBox="0 0 25755.01 22190.97"
 xmlns:xlink="http://www.w3.org/1999/xlink"
 xmlns:xodm="http://www.corel.com/coreldraw/odm/2003">
 <defs>
  <style type="text/css">
   <![CDATA[
    .str0 {stroke:white;stroke-width:717.27;stroke-linecap:round;stroke-linejoin:round;stroke-miterlimit:22.9256}
    .fil0 {fill:black;fill-rule:nonzero}
   ]]>
  </style>
 </defs>
 <g id="Layer_x0020_1">
  <metadata id="CorelCorpID_0Corel-Layer"/>
  <path class="fil0 str0" d="M24632.75 454.2c-173.5,97.6 -607.29,216.89 -889.24,249.43 -97.6,10.84 -238.57,25.3 -307.26,36.15 -896.48,119.29 -1883.32,133.75 -9543.13,148.21 -3867.85,3.62 -7128.42,18.08 -7247.7,28.92 -769.96,61.45 -791.64,65.07 -1247.11,130.13 -404.86,61.45 -394.02,57.83 -780.8,159.05 -1167.59,310.88 -2082.14,874.78 -2815.95,1738.73 -269.82,317.99 -597.52,833.51 -798.88,1229.03 -325.33,647.05 -560.3,1384.48 -614.52,1952 -36.15,365.1 -39.77,994.08 -7.23,1120.59 14.46,57.83 36.15,166.28 46.99,234.97 10.84,68.68 57.83,187.97 101.22,263.88 195.2,350.63 516.92,281.96 842.25,-184.36 224.12,-318.1 733.81,-820.57 1026.61,-1012.15 1105.15,-729.69 2578.47,-899.71 3885.93,-1004.94 473.54,-36.15 1476.2,-29.37 1572.44,-28.92 -21.68,694.56 -807.25,4104.96 -943.47,4623.35 -484.38,1825.49 -961.54,3141.27 -1630.29,4525.75 -596.44,1229.03 -1286.88,2100.21 -2197.81,2754.5 -495.24,357.87 -741.03,639.83 -950.7,1080.84 -253.65,531.06 -121.23,1611.48 133.75,2139.98 289.18,600.06 983.24,1030.23 1865.24,1153.13 916.71,130.97 1836.24,-47.23 2515.91,-712.12 741.03,-730.19 1482.08,-2436.39 1836.33,-4218.5 283.05,-1383.75 629.98,-2871.28 831.4,-4247.41 144.41,-914.48 323.41,-1831.43 469.93,-2747.27 300.64,-1403.49 465.29,-2909.15 704.89,-4337.77 7.24,-50.67 5643.66,-36.15 6430.75,-36.15 -204.41,490.58 -394.1,1023.02 -610.9,1500.15 -260.27,589.22 -1453.16,3799.17 -1670.04,4500.45 -86.76,271.11 -296.42,1026.61 -332.57,1189.27 -424.51,1867.72 -610.09,3620.83 -325.33,5516.22 168.28,1144.23 699.2,2131.08 1633.89,2823.17 886.03,661.31 1565.81,769.67 2631.59,791.64 1651.97,28.92 3058.14,-422.93 4410.08,-1413.39 621.75,-455.47 1449.54,-1398.94 1821.87,-2074.9 281.96,-513.3 534.99,-1044.69 704.89,-1471.24 169.9,-426.55 206.04,-556.68 209.66,-759.11 18.08,-610.9 -227.73,-867.56 -715.73,-751.89 -242.19,57.83 -368.71,140.97 -625.37,430.17 -704.89,788.04 -1290.49,1236.27 -1854.4,1424.24 -397.63,133.75 -509.69,155.43 -831.41,169.9 -332.57,14.46 -542.23,-32.53 -845.87,-180.74 -647.05,-318.1 -1163.97,-1156.74 -1384.48,-2259.26 -119.29,-589.22 -144.59,-1001.3 -130.13,-2223.11 10.84,-675.96 21.69,-1294.09 32.53,-1373.63 7.23,-79.52 25.3,-307.26 39.77,-506.08 10.84,-198.82 28.92,-412.09 36.15,-469.93 122.91,-860.47 183.05,-1649.91 361.49,-2512.3 86.94,-405.88 453.1,-2267.5 538.61,-2338.79 7.23,-7.23 328.95,-21.69 712.12,-28.92 657.9,-14.46 1344.71,-46.99 1474.84,-72.3 32.53,-3.62 130.13,-21.69 220.5,-36.15 892.86,-133.75 1348.33,-459.08 1850.79,-1312.18 347.03,-585.6 722.97,-1662.82 809.72,-2302.64 32.97,-307.88 72.29,-540.13 72.29,-860.33 -3.36,-319.17 -93.73,-720.19 -524.12,-437.39z"/>
 </g>
</svg>
