<?xml version="1.0" encoding="UTF-8" standalone="no"?>
<!DOCTYPE svg PUBLIC "-//W3C//DTD SVG 1.1//EN" "http://www.w3.org/Graphics/SVG/1.1/DTD/svg11.dtd">
<!-- Generated by Microsoft Visio, SVG Export opikvm-logo.svg Page-1 -->
<svg xmlns="http://www.w3.org/2000/svg" xmlns:xlink="http://www.w3.org/1999/xlink" xmlns:ev="http://www.w3.org/2001/xml-events"
		xmlns:v="http://schemas.microsoft.com/visio/2003/SVGExtensions/" width="6.44656in" height="1.88949in"
		viewBox="0 0 464.153 136.043" xml:space="preserve" color-interpolation-filters="sRGB" class="st2">
	<v:documentProperties v:langID="1033" v:viewMarkup="false"/>

	<style type="text/css">
	<![CDATA[
		.st1 {fill:#dc7a0e;stroke:none;stroke-linecap:butt;stroke-width:0.0283465}
		.st2 {fill:none;fill-rule:evenodd;font-size:12px;overflow:visible;stroke-linecap:square;stroke-miterlimit:3}
	]]>
	</style>

	<g v:mID="0" v:index="1" v:groupContext="foregroundPage">
		<title>Page-1</title>
		<v:pageProperties v:drawingScale="1" v:pageScale="1" v:drawingUnits="19" v:shadowOffsetX="9" v:shadowOffsetY="-9"/>
		<g id="shape2-1" v:mID="2" v:groupContext="shape" transform="translate(0.0283465,-0.0283465)">
			<title>path7</title>
			<path d="M12.87 0.06 L451.23 0.06 C458.31 0.06 464.1 5.85 464.1 12.92 L464.1 123.18 C464.1 130.25 458.31 136.04 451.23
						 136.04 L12.87 136.04 C5.79 136.04 0 130.25 0 123.18 L0 12.92 C0 5.85 5.79 0.06 12.87 0.06 ZM203.52 64.5
						 L240.18 110.34 C240.88 111.21 241.03 112.33 240.56 113.35 C240.08 114.36 239.11 114.97 237.99 114.97 L214.83
						 114.97 C213.95 114.97 213.18 114.62 212.64 113.93 L204.76 103.99 L178.52 70.87 L178.52 112.14 C178.52 113.7
						 177.24 114.97 175.68 114.97 L157.86 114.97 C156.3 114.97 155.02 113.7 155.02 112.14 L155.02 23.96 C155.02
						 22.4 156.3 21.13 157.86 21.13 L175.68 21.13 C177.24 21.13 178.52 22.4 178.52 23.96 L178.52 62.1 L205.35
						 28.23 L210.15 22.18 C210.7 21.49 211.47 21.13 212.35 21.13 L232.26 21.13 C233.38 21.13 234.34 21.74 234.82
						 22.76 C235.3 23.77 235.14 24.89 234.44 25.77 L203.52 64.5 ZM245.12 30.92 L251.29 38.69 L282.84 78.38 L316.61
						 37.11 L328.71 22.31 C329.49 21.36 330.72 21.03 331.87 21.44 C333.02 21.86 333.74 22.91 333.74 24.13 L333.75
						 52.44 C333.75 53.11 333.53 53.7 333.11 54.22 L285.14 112.93 C284.58 113.61 283.81 113.98 282.93 113.97 C282.04
						 113.97 281.28 113.6 280.73 112.91 L229.61 48.81 C228.79 47.78 228.77 46.35 229.58 45.31 L240.66 30.95 C241.21
						 30.24 241.98 29.86 242.88 29.85 C243.78 29.85 244.56 30.22 245.12 30.92 ZM117.3 112.14 L117.3 56.32 C117.3
						 54.76 118.57 53.49 120.13 53.49 L137.96 53.49 C139.52 53.49 140.79 54.76 140.79 56.33 C140.79 96.9 140.79
						 73.79 140.79 112.14 C140.79 113.7 139.52 114.97 137.96 114.97 L120.13 114.97 C118.57 114.97 117.3 113.7
						 117.3 112.14 ZM120.13 21.13 L137.96 21.13 C139.52 21.13 140.79 22.4 140.79 23.96 L140.79 41.79 C140.79 43.35
						 139.52 44.62 137.96 44.62 C125.46 44.62 131.82 44.62 120.13 44.62 C118.57 44.62 117.3 43.35 117.3 41.79
						 L117.3 23.96 C117.3 22.4 118.57 21.13 120.13 21.13 ZM52.71 83.71 L52.71 112.14 C52.71 113.7 51.44 114.97
						 49.88 114.97 L31.91 114.97 C30.35 114.97 29.08 113.7 29.08 112.14 L29.08 23.96 C29.08 22.4 30.35 21.13 31.91
						 21.13 C52.01 21.13 74.47 21.13 94.57 21.13 C99.25 21.13 103.07 24.95 103.07 29.63 C103.07 46.41 103.07 58.43
						 103.07 75.2 C103.07 79.89 99.25 83.71 94.57 83.71 C81.4 83.71 65.88 83.71 52.71 83.71 ZM79.57 65.45 L79.57
						 38.58 L52.71 38.58 L52.71 65.45 L79.57 65.45 ZM342.63 112.14 L342.63 23.96 C342.63 22.4 343.9 21.13 345.47
						 21.13 L361.99 21.13 C362.88 21.13 363.65 21.5 364.2 22.2 L388.85 53.12 L413.5 22.2 C414.06 21.5 414.83 21.13
						 415.72 21.13 L432.24 21.13 C433.8 21.13 435.08 22.4 435.08 23.96 L435.08 112.14 C435.08 113.7 433.8 114.97
						 432.24 114.97 L414.69 114.97 C413.13 114.97 411.86 113.7 411.86 112.14 L411.86 56.9 L391.06 82.73 C390.5
						 83.42 389.74 83.79 388.85 83.79 C387.97 83.79 387.2 83.42 386.65 82.73 L365.85 56.9 L365.85 112.14 C365.85
						 113.7 364.58 114.97 363.01 114.97 L345.47 114.97 C343.9 114.97 342.63 113.7 342.63 112.14 Z" class="st1"/>
		</g>
	</g>
</svg>
