<?xml version="1.0" encoding="UTF-8" standalone="no"?>
<!-- Created with Inkscape (http://www.inkscape.org/) -->

<svg
   xmlns:dc="http://purl.org/dc/elements/1.1/"
   xmlns:cc="http://creativecommons.org/ns#"
   xmlns:rdf="http://www.w3.org/1999/02/22-rdf-syntax-ns#"
   xmlns:svg="http://www.w3.org/2000/svg"
   xmlns="http://www.w3.org/2000/svg"
   xmlns:sodipodi="http://sodipodi.sourceforge.net/DTD/sodipodi-0.dtd"
   xmlns:inkscape="http://www.inkscape.org/namespaces/inkscape"
   width="10mm"
   height="10mm"
   viewBox="0 0 9.9999997 10"
   version="1.1"
   id="svg8"
   inkscape:version="0.92.2 2405546, 2018-03-11"
   sodipodi:docname="favicon.svg">
  <defs
     id="defs2" />
  <sodipodi:namedview
     id="base"
     pagecolor="#ffffff"
     bordercolor="#666666"
     borderopacity="1.0"
     inkscape:pageopacity="0.0"
     inkscape:pageshadow="2"
     inkscape:zoom="11.313709"
     inkscape:cx="15.549504"
     inkscape:cy="14.591027"
     inkscape:document-units="mm"
     inkscape:current-layer="layer1"
     showgrid="false"
     fit-margin-top="0"
     fit-margin-left="0"
     fit-margin-right="0"
     fit-margin-bottom="0"
     inkscape:window-width="1920"
     inkscape:window-height="1020"
     inkscape:window-x="0"
     inkscape:window-y="30"
     inkscape:window-maximized="1" />
  <metadata
     id="metadata5">
    <rdf:RDF>
      <cc:Work
         rdf:about="">
        <dc:format>image/svg+xml</dc:format>
        <dc:type
           rdf:resource="http://purl.org/dc/dcmitype/StillImage" />
        <dc:title />
      </cc:Work>
    </rdf:RDF>
  </metadata>
  <g
     inkscape:label="Layer 1"
     inkscape:groupmode="layer"
     id="layer1"
     transform="translate(-11.627273,-0.28387921)">
    <text
       xml:space="preserve"
       style="font-style:normal;font-variant:normal;font-weight:bold;font-stretch:normal;font-size:2.64583325px;line-height:125%;font-family:'Adobe Garamond Pro';-inkscape-font-specification:'Adobe Garamond Pro Bold';text-align:start;letter-spacing:0px;word-spacing:0px;writing-mode:lr-tb;text-anchor:start;fill:#000000;fill-opacity:1;stroke:none;stroke-width:0.26458332px;stroke-linecap:butt;stroke-linejoin:miter;stroke-opacity:1"
       x="17.094305"
       y="9.1093149"
       id="text4782"><tspan
         sodipodi:role="line"
         id="tspan4780"
         x="17.094305"
         y="9.1093149"
         style="stroke-width:0.26458332px">      </tspan></text>
    <g
       aria-label="π"
       transform="matrix(0.93741128,0,0,0.93741128,11.744047,-21.123091)"
       style="font-style:normal;font-variant:normal;font-weight:bold;font-stretch:normal;font-size:10px;line-height:125%;font-family:'Adobe Garamond Pro';-inkscape-font-specification:'Adobe Garamond Pro Bold';text-align:start;letter-spacing:0px;word-spacing:0px;writing-mode:lr-tb;text-anchor:start;fill:#000000;fill-opacity:1;stroke:none;stroke-width:0.28224891px;stroke-linecap:butt;stroke-linejoin:miter;stroke-opacity:1"
       id="flowRoot4779">
      <path
         d="m 4.2034012,25.805656 q -0.1706667,1.066667 -0.2986667,1.856 -0.128,0.789334 -0.2346667,1.365334 -0.1066666,0.576 -0.192,0.981333 -0.085333,0.405334 -0.1493333,0.725334 -0.2346667,0.981333 -0.5973334,1.472 -0.3413333,0.490666 -0.96,0.490666 -0.5546667,0 -0.87466668,-0.277333 -0.29866668,-0.277333 -0.27733335,-0.874667 0,-0.192 0.12800001,-0.384 0.128,-0.192 0.29866672,-0.298666 0.256,-0.170667 0.512,-0.469334 0.2773333,-0.32 0.5333333,-0.896 0.2773334,-0.576 0.5333334,-1.472 0.256,-0.896 0.4693333,-2.218667 -1.0666667,0 -1.728,0.192 -0.66133339,0.170667 -1.02400007,0.704 -0.10666667,0.170667 -0.23466667,0.149334 -0.12800001,-0.02133 -0.17066667,-0.298667 -0.02133334,-0.149333 0,-0.426667 0.02133333,-0.298666 0.14933333,-0.618666 0.12800001,-0.341334 0.36266668,-0.661334 0.23466668,-0.341333 0.6613334,-0.597333 0.3626666,-0.213333 0.832,-0.298667 0.4906667,-0.08533 1.1733333,-0.08533 h 4.6293335 q 1.2373334,0 1.7493334,-0.04267 0.533333,-0.04267 0.704,-0.149333 0.04267,-0.04267 0.106667,-0.02133 0.08533,0.02133 0.08533,0.192 0,0.469333 -0.213333,1.024 -0.2133336,0.533333 -0.5120003,0.746666 -0.1706667,0.106667 -0.4693334,0.149334 -0.2986666,0.04267 -0.9813333,0.04267 -0.4053334,1.514667 -0.4266667,2.965334 -0.042667,1.024 0.2346667,1.536 0.2773333,0.512 0.7253333,0.512 0.2346667,0 0.5333334,-0.128 0.2986666,-0.149333 0.6613333,-0.576 0.106667,-0.128 0.213333,-0.149333 0.128,-0.04267 0.213334,0 0.08533,0.04267 0.106666,0.170666 0.04267,0.106667 -0.02133,0.32 -0.426667,1.173334 -1.216,1.706667 -0.768,0.533333 -1.7280001,0.533333 -0.6186666,0 -1.0026667,-0.234666 -0.3626666,-0.234667 -0.576,-0.554667 -0.192,-0.341333 -0.256,-0.725333 -0.064,-0.384 -0.064,-0.704 0,-1.152001 0.4053334,-2.346667 0.4266666,-1.194667 0.896,-2.325334 z"
         style="font-size:21.33333397px;stroke-width:0.28224891px"
         id="path4758" />
    </g>
  </g>
</svg>
