<?xml version="1.0" encoding="iso-8859-1"?>
<!-- Generator: Adobe Illustrator 18.1.1, SVG Export Plug-In . SVG Version: 6.00 Build 0)  -->
<svg version="1.1" id="Capa_1" xmlns="http://www.w3.org/2000/svg" xmlns:xlink="http://www.w3.org/1999/xlink" x="0px" y="0px"
	 viewBox="0 0 31.586 31.586" style="enable-background:new 0 0 31.586 31.586;" xml:space="preserve">
<g>
	<path d="M29.331,2.256H2.259C1.01,2.256,0,3.265,0,4.511v22.565c0,1.244,1.01,2.255,2.259,2.255h27.072
		c1.242,0,2.255-1.011,2.255-2.255V4.511C31.586,3.265,30.573,2.256,29.331,2.256z M10.788,3.95c0.623,0,1.126,0.502,1.126,1.128
		c0,0.623-0.503,1.125-1.126,1.125S9.659,5.701,9.659,5.078C9.659,4.452,10.165,3.95,10.788,3.95z M7.334,3.95
		c0.623,0,1.129,0.502,1.129,1.128c0,0.623-0.506,1.125-1.129,1.125c-0.625,0-1.131-0.503-1.131-1.125
		C6.203,4.452,6.709,3.95,7.334,3.95z M3.947,3.95c0.623,0,1.129,0.502,1.129,1.128c0,0.623-0.506,1.125-1.129,1.125
		c-0.621,0-1.126-0.503-1.126-1.125C2.821,4.452,3.326,3.95,3.947,3.95z M29.331,27.076H2.259V7.922h27.072
		C29.331,7.922,29.331,27.076,29.331,27.076z M29.331,5.665H13.536V4.537h15.795C29.331,4.537,29.331,5.665,29.331,5.665z"/>
	<g>
	</g>
	<g>
	</g>
	<g>
	</g>
	<g>
	</g>
	<g>
	</g>
	<g>
	</g>
	<g>
	</g>
	<g>
	</g>
	<g>
	</g>
	<g>
	</g>
	<g>
	</g>
	<g>
	</g>
	<g>
	</g>
	<g>
	</g>
	<g>
	</g>
</g>
<g>
</g>
<g>
</g>
<g>
</g>
<g>
</g>
<g>
</g>
<g>
</g>
<g>
</g>
<g>
</g>
<g>
</g>
<g>
</g>
<g>
</g>
<g>
</g>
<g>
</g>
<g>
</g>
<g>
</g>
</svg>
