<?xml version="1.0" encoding="UTF-8" standalone="no"?>
<!-- Generator: Adobe Illustrator 18.1.1, SVG Export Plug-In . SVG Version: 6.00 Build 0)  -->

<svg
   xmlns:dc="http://purl.org/dc/elements/1.1/"
   xmlns:cc="http://creativecommons.org/ns#"
   xmlns:rdf="http://www.w3.org/1999/02/22-rdf-syntax-ns#"
   xmlns:svg="http://www.w3.org/2000/svg"
   xmlns="http://www.w3.org/2000/svg"
   xmlns:sodipodi="http://sodipodi.sourceforge.net/DTD/sodipodi-0.dtd"
   xmlns:inkscape="http://www.inkscape.org/namespaces/inkscape"
   version="1.1"
   id="Capa_1"
   x="0px"
   y="0px"
   viewBox="0 0 63.999999 63.999714"
   xml:space="preserve"
   sodipodi:docname="fan.svg"
   width="64"
   height="63.999714"
   inkscape:version="0.92.2 2405546, 2018-03-11"><metadata
   id="metadata4808"><rdf:RDF><cc:Work
       rdf:about=""><dc:format>image/svg+xml</dc:format><dc:type
         rdf:resource="http://purl.org/dc/dcmitype/StillImage" /><dc:title></dc:title></cc:Work></rdf:RDF></metadata><defs
   id="defs4806">
	

		
		
	</defs><sodipodi:namedview
   pagecolor="#ffffff"
   bordercolor="#666666"
   borderopacity="1"
   objecttolerance="10"
   gridtolerance="10"
   guidetolerance="10"
   inkscape:pageopacity="0"
   inkscape:pageshadow="2"
   inkscape:window-width="1920"
   inkscape:window-height="1020"
   id="namedview4804"
   showgrid="false"
   fit-margin-top="0"
   fit-margin-left="0"
   fit-margin-right="0"
   fit-margin-bottom="0"
   inkscape:zoom="7.3853375"
   inkscape:cx="69.858273"
   inkscape:cy="30.334855"
   inkscape:window-x="0"
   inkscape:window-y="30"
   inkscape:window-maximized="1"
   inkscape:current-layer="Capa_1" />
<path
   d="m 63.334922,25.549682 c -0.177154,-0.86073 -0.546488,-1.4749 -1.224053,-2.03456 -5.414798,-4.47493 -12.924109,-4.17414 -22.52822,0.90223 -0.626766,-0.62676 -1.30519,-1.15651 -2.065465,-1.6127 6.619247,-5.93839 12.653083,-8.43143 18.101079,-7.47955 1.606266,0.28061 2.718561,-1.5599 1.72332,-2.85136 -2.208992,-2.8669502 -4.723066,-5.2011502 -7.745565,-7.1919202 -0.734089,-0.48338 -1.429398,-0.65624 -2.304294,-0.5731 -6.993017,0.66469 -12.090282,6.1872302 -15.291795,16.5677902 -0.886487,0 -1.740778,0.10503 -2.600792,0.32011 0.481522,-8.87947 2.985008,-14.9088702 7.510599,-18.0882002 1.334239,-0.93729 0.819232,-3.02521996 -0.797623,-3.23499996 -3.589307,-0.46521 -7.017486,-0.33814 -10.562433,0.39166 -0.86073,0.17715 -1.474903,0.54648996 -2.034556,1.22404996 -4.474935,5.4148 -4.174145,12.9241102 0.902228,22.5282202 -0.626766,0.62677 -1.156512,1.30519 -1.612706,2.06547 -5.93839,-6.61925 -8.431429,-12.65309 -7.479547,-18.1010802 0.280614,-1.60627 -1.559902,-2.71856 -2.851354,-1.72347 -2.8669526,2.209 -5.201154,4.7230702 -7.1919221,7.7455702 -0.4833823,0.73409 -0.6562437,1.4294 -0.5731043,2.30429 0.6646865,6.99302 6.1872364,12.09029 16.5677934,15.2918 0,0.88649 0.105033,1.74078 0.320108,2.60079 -8.879467,-0.48152 -14.9088672,-2.98501 -18.0882006,-7.5106 -0.9372866,-1.33424 -3.02521772,-0.81923 -3.2349982,0.79762 -0.46520897,3.58931 -0.33813866,7.01749 0.391657,10.56244 0.17715433,0.86073 0.5464882,1.4749 1.2240534,2.03455 5.4147977,4.47494 12.9241094,4.17415 22.5282204,-0.90222 0.626766,0.62676 1.305189,1.15651 2.065465,1.6127 -6.619247,5.93839 -12.653083,8.43143 -18.1010797,7.47955 -1.6062659,-0.28062 -2.7185604,1.5599 -1.7233194,2.85135 2.2089913,2.86695 4.7230661,5.20116 7.7455651,7.19192 0.734088,0.48339 1.429398,0.65625 2.304294,0.57311 6.993016,-0.66469 12.090281,-6.18724 15.291795,-16.56779 0.886487,0 1.740777,-0.10504 2.600791,-0.32026 -0.481522,8.87947 -2.985007,14.90887 -7.510599,18.0882 -1.334238,0.93729 -0.819231,3.02522 0.797624,3.235 3.589307,0.46521 7.017486,0.33814 10.562433,-0.39165 0.860729,-0.17716 1.474903,-0.54649 2.034556,-1.22406 4.474935,-5.4148 4.174145,-12.92411 -0.902228,-22.52822 0.626766,-0.62676 1.156511,-1.30519 1.612705,-2.06546 5.938391,6.61924 8.43143,12.65308 7.479547,18.10108 -0.280613,1.60626 1.559903,2.71856 2.851355,1.72332 2.866952,-2.20899 5.201153,-4.72307 7.191922,-7.74557 0.483382,-0.73409 0.656243,-1.4294 0.573104,-2.30429 -0.664687,-6.99302 -6.187237,-12.09028 -16.567793,-15.2918 0,-0.88648 -0.105033,-1.74077 -0.320108,-2.60079 8.879467,0.48152 14.908867,2.98501 18.0882,7.5106 0.937287,1.33424 3.025218,0.81923 3.234998,-0.79762 0.465209,-3.58917 0.338139,-7.01706 -0.391657,-10.56215 z m -31.33485,15.38653 c -4.935279,0 -8.936277,-4.001 -8.936277,-8.93628 0,-4.93528 4.000998,-8.93628 8.936277,-8.93628 4.935279,0 8.936276,4.001 8.936276,8.93628 0,4.93528 -4.000997,8.93628 -8.936276,8.93628 z"
   id="path4768"
   inkscape:connector-curvature="0"
   style="stroke-width:1" />
<g
   id="g4773"
   transform="translate(-82.375262,-465.62302)">
</g>
<g
   id="g4775"
   transform="translate(-82.375262,-465.62302)">
</g>
<g
   id="g4777"
   transform="translate(-82.375262,-465.62302)">
</g>
<g
   id="g4779"
   transform="translate(-82.375262,-465.62302)">
</g>
<g
   id="g4781"
   transform="translate(-82.375262,-465.62302)">
</g>
<g
   id="g4783"
   transform="translate(-82.375262,-465.62302)">
</g>
<g
   id="g4785"
   transform="translate(-82.375262,-465.62302)">
</g>
<g
   id="g4787"
   transform="translate(-82.375262,-465.62302)">
</g>
<g
   id="g4789"
   transform="translate(-82.375262,-465.62302)">
</g>
<g
   id="g4791"
   transform="translate(-82.375262,-465.62302)">
</g>
<g
   id="g4793"
   transform="translate(-82.375262,-465.62302)">
</g>
<g
   id="g4795"
   transform="translate(-82.375262,-465.62302)">
</g>
<g
   id="g4797"
   transform="translate(-82.375262,-465.62302)">
</g>
<g
   id="g4799"
   transform="translate(-82.375262,-465.62302)">
</g>
<g
   id="g4801"
   transform="translate(-82.375262,-465.62302)">
</g>
</svg>
