<?xml version="1.0" encoding="UTF-8" standalone="no"?>
<!-- Created with Inkscape (http://www.inkscape.org/) -->

<svg
   xmlns:dc="http://purl.org/dc/elements/1.1/"
   xmlns:cc="http://creativecommons.org/ns#"
   xmlns:rdf="http://www.w3.org/1999/02/22-rdf-syntax-ns#"
   xmlns:svg="http://www.w3.org/2000/svg"
   xmlns="http://www.w3.org/2000/svg"
   xmlns:sodipodi="http://sodipodi.sourceforge.net/DTD/sodipodi-0.dtd"
   xmlns:inkscape="http://www.inkscape.org/namespaces/inkscape"
   width="16.933332mm"
   height="16.933332mm"
   viewBox="0 0 16.933332 16.933332"
   version="1.1"
   id="svg8"
   sodipodi:docname="keyboard.svg"
   inkscape:version="0.92.2 2405546, 2018-03-11">
  <defs
     id="defs2" />
  <sodipodi:namedview
     id="base"
     pagecolor="#ffffff"
     bordercolor="#666666"
     borderopacity="1.0"
     inkscape:pageopacity="0.0"
     inkscape:pageshadow="2"
     inkscape:zoom="5.6"
     inkscape:cx="1.0356611"
     inkscape:cy="21.129805"
     inkscape:document-units="mm"
     inkscape:current-layer="layer1"
     showgrid="false"
     fit-margin-top="0"
     fit-margin-left="0"
     fit-margin-right="0"
     fit-margin-bottom="0"
     inkscape:window-width="1920"
     inkscape:window-height="1020"
     inkscape:window-x="0"
     inkscape:window-y="30"
     inkscape:window-maximized="1" />
  <metadata
     id="metadata5">
    <rdf:RDF>
      <cc:Work
         rdf:about="">
        <dc:format>image/svg+xml</dc:format>
        <dc:type
           rdf:resource="http://purl.org/dc/dcmitype/StillImage" />
        <dc:title></dc:title>
      </cc:Work>
    </rdf:RDF>
  </metadata>
  <g
     inkscape:label="Layer 1"
     inkscape:groupmode="layer"
     id="layer1"
     transform="translate(-107.87666,-24.618942)">
    <g
       aria-label="⌨"
       transform="matrix(1.2768581,0,0,1.2768581,215.79611,15.018191)"
       style="font-style:normal;font-variant:normal;font-weight:bold;font-stretch:normal;font-size:10px;line-height:125%;font-family:'Adobe Garamond Pro';-inkscape-font-specification:'Adobe Garamond Pro Bold';text-align:start;letter-spacing:0px;word-spacing:0px;writing-mode:lr-tb;text-anchor:start;fill:#000000;fill-opacity:1;stroke:none;stroke-width:0.20721436px;stroke-linecap:butt;stroke-linejoin:miter;stroke-opacity:1"
       id="flowRoot4808">
      <path
         d="m -83.44043,10.504883 h 11.103516 q 1.079102,0 1.079102,1.079101 v 5.131836 q 0,1.079102 -1.079102,1.079102 H -83.44043 q -1.079101,0 -1.079101,-1.079102 v -5.131836 q 0,-1.079101 1.079101,-1.079101 z m -0.361328,1.079101 v 5.131836 q 0,0.361328 0.361328,0.361328 h 11.103516 q 0.356445,0 0.356445,-0.361328 v -5.131836 q 0,-0.361328 -0.356445,-0.361328 H -83.44043 q -0.361328,0 -0.361328,0.361328 z m 1.264649,4.501953 v 0.356446 q 0,0.180664 -0.180664,0.180664 h -0.361329 q -0.180664,0 -0.180664,-0.180664 v -0.356446 q 0,-0.185546 0.180664,-0.185546 h 0.361329 q 0.180664,0 0.180664,0.185546 z m 1.088867,-0.0049 v 0.361328 q 0,0.180664 -0.180664,0.180664 h -0.366211 q -0.175781,0 -0.175781,-0.180664 v -0.361328 q 0,-0.180664 0.175781,-0.180664 h 0.366211 q 0.180664,0 0.180664,0.180664 z m 1.611328,-1.074219 v 0.361328 q 0,0.180664 -0.180664,0.180664 h -0.361328 q -0.180664,0 -0.180664,-0.180664 v -0.361328 q 0,-0.180664 0.180664,-0.180664 h 0.361328 q 0.180664,0 0.180664,0.180664 z m -2.158203,0 v 0.361328 q 0,0.180664 -0.180664,0.180664 h -0.361328 q -0.180664,0 -0.180664,-0.180664 v -0.361328 q 0,-0.180664 0.180664,-0.180664 h 0.361328 q 0.180664,0 0.180664,0.180664 z m 1.079101,0 v 0.361328 q 0,0.180664 -0.180664,0.180664 h -0.361328 q -0.180664,0 -0.180664,-0.180664 v -0.361328 q 0,-0.180664 0.180664,-0.180664 h 0.361328 q 0.180664,0 0.180664,0.180664 z m 2.153321,0 v 0.361328 q 0,0.180664 -0.180664,0.180664 h -0.361328 q -0.180665,0 -0.180665,-0.180664 v -0.361328 q 0,-0.180664 0.180665,-0.180664 h 0.361328 q 0.180664,0 0.180664,0.180664 z m 1.079101,0 v 0.361328 q 0,0.180664 -0.180664,0.180664 h -0.361328 q -0.180664,0 -0.180664,-0.180664 v -0.361328 q 0,-0.180664 0.180664,-0.180664 h 0.361328 q 0.180664,0 0.180664,0.180664 z m 1.079102,0 v 0.361328 q 0,0.180664 -0.180664,0.180664 h -0.361328 q -0.180664,0 -0.180664,-0.180664 v -0.361328 q 0,-0.180664 0.180664,-0.180664 h 0.361328 q 0.180664,0 0.180664,0.180664 z m 1.079101,0 v 0.361328 q 0,0.180664 -0.180664,0.180664 h -0.361328 q -0.180664,0 -0.180664,-0.180664 v -0.361328 q 0,-0.180664 0.180664,-0.180664 h 0.361328 q 0.180664,0 0.180664,0.180664 z m 1.079102,0 v 0.361328 q 0,0.180664 -0.180664,0.180664 h -0.361328 q -0.180664,0 -0.180664,-0.180664 v -0.361328 q 0,-0.180664 0.180664,-0.180664 h 0.361328 q 0.180664,0 0.180664,0.180664 z m 1.943359,0 v 0.361328 q 0,0.180664 -0.180664,0.180664 h -1.225586 q -0.180664,0 -0.180664,-0.180664 v -0.361328 q 0,-0.180664 0.180664,-0.180664 h 1.225586 q 0.180664,0 0.180664,0.180664 z m -9.672851,-1.074219 v 0.361328 q 0,0.180664 -0.180664,0.180664 h -0.361328 q -0.180664,0 -0.180664,-0.180664 v -0.361328 q 0,-0.180664 0.180664,-0.180664 h 0.361328 q 0.180664,0 0.180664,0.180664 z m 1.079101,0 v 0.361328 q 0,0.180664 -0.180664,0.180664 h -0.361328 q -0.180664,0 -0.180664,-0.180664 v -0.361328 q 0,-0.180664 0.180664,-0.180664 h 0.361328 q 0.180664,0 0.180664,0.180664 z m 1.079102,0 v 0.361328 q 0,0.180664 -0.180664,0.180664 h -0.361328 q -0.180664,0 -0.180664,-0.180664 v -0.361328 q 0,-0.180664 0.180664,-0.180664 h 0.361328 q 0.180664,0 0.180664,0.180664 z m 1.074219,0 v 0.361328 q 0,0.180664 -0.180664,0.180664 h -0.361329 q -0.180664,0 -0.180664,-0.180664 v -0.361328 q 0,-0.180664 0.180664,-0.180664 h 0.361329 q 0.180664,0 0.180664,0.180664 z m 1.079101,0 v 0.361328 q 0,0.180664 -0.180664,0.180664 h -0.361328 q -0.180664,0 -0.180664,-0.180664 v -0.361328 q 0,-0.180664 0.180664,-0.180664 h 0.361328 q 0.180664,0 0.180664,0.180664 z m 1.079102,0 v 0.361328 q 0,0.180664 -0.180664,0.180664 h -0.361328 q -0.180664,0 -0.180664,-0.180664 v -0.361328 q 0,-0.180664 0.180664,-0.180664 h 0.361328 q 0.180664,0 0.180664,0.180664 z m 1.079101,0 v 0.361328 q 0,0.180664 -0.180664,0.180664 h -0.361328 q -0.180664,0 -0.180664,-0.180664 v -0.361328 q 0,-0.180664 0.180664,-0.180664 h 0.361328 q 0.180664,0 0.180664,0.180664 z m 1.079102,0 v 0.361328 q 0,0.180664 -0.180664,0.180664 h -0.361328 q -0.180664,0 -0.180664,-0.180664 v -0.361328 q 0,-0.180664 0.180664,-0.180664 h 0.361328 q 0.180664,0 0.180664,0.180664 z m -0.175781,-1.074219 v 0.361329 q 0,0.180664 -0.180664,0.180664 h -0.361329 q -0.180664,0 -0.180664,-0.180664 v -0.361329 q 0,-0.180664 0.180664,-0.180664 h 0.361329 q 0.180664,0 0.180664,0.180664 z m -1.079102,0 v 0.361329 q 0,0.180664 -0.180664,0.180664 h -0.361328 q -0.180664,0 -0.180664,-0.180664 v -0.361329 q 0,-0.180664 0.180664,-0.180664 h 0.361328 q 0.180664,0 0.180664,0.180664 z m -1.079101,0 v 0.361329 q 0,0.180664 -0.180665,0.180664 h -0.361328 q -0.180664,0 -0.180664,-0.180664 v -0.361329 q 0,-0.180664 0.180664,-0.180664 h 0.361328 q 0.180665,0 0.180665,0.180664 z m -1.079102,0 v 0.361329 q 0,0.180664 -0.180664,0.180664 h -0.361328 q -0.180664,0 -0.180664,-0.180664 v -0.361329 q 0,-0.180664 0.180664,-0.180664 h 0.361328 q 0.180664,0 0.180664,0.180664 z m -1.074219,0 v 0.361329 q 0,0.180664 -0.180664,0.180664 h -0.361328 q -0.180664,0 -0.180664,-0.180664 v -0.361329 q 0,-0.180664 0.180664,-0.180664 h 0.361328 q 0.180664,0 0.180664,0.180664 z m -1.079101,0 v 0.361329 q 0,0.180664 -0.180664,0.180664 h -0.361329 q -0.180664,0 -0.180664,-0.180664 v -0.361329 q 0,-0.180664 0.180664,-0.180664 h 0.361329 q 0.180664,0 0.180664,0.180664 z m -1.079102,0 v 0.361329 q 0,0.180664 -0.180664,0.180664 h -0.361328 q -0.180664,0 -0.180664,-0.180664 v -0.361329 q 0,-0.180664 0.180664,-0.180664 h 0.361328 q 0.180664,0 0.180664,0.180664 z m -1.079101,0 v 0.361329 q 0,0.180664 -0.180665,0.180664 h -0.361328 q -0.180664,0 -0.180664,-0.180664 v -0.361329 q 0,-0.180664 0.180664,-0.180664 h 0.361328 q 0.180665,0 0.180665,0.180664 z m -0.175782,-1.05957 v 0.361328 q 0,0.180664 -0.180664,0.180664 h -0.361328 q -0.180664,0 -0.180664,-0.180664 v -0.361328 q 0,-0.180664 0.180664,-0.180664 h 0.361328 q 0.180664,0 0.180664,0.180664 z m 1.079102,0 v 0.361328 q 0,0.180664 -0.180664,0.180664 h -0.361328 q -0.180664,0 -0.180664,-0.180664 v -0.361328 q 0,-0.180664 0.180664,-0.180664 h 0.361328 q 0.180664,0 0.180664,0.180664 z m 1.079101,0 v 0.361328 q 0,0.180664 -0.180664,0.180664 h -0.361328 q -0.180664,0 -0.180664,-0.180664 v -0.361328 q 0,-0.180664 0.180664,-0.180664 h 0.361328 q 0.180664,0 0.180664,0.180664 z m 1.079102,0 v 0.361328 q 0,0.180664 -0.180664,0.180664 h -0.361328 q -0.180664,0 -0.180664,-0.180664 v -0.361328 q 0,-0.180664 0.180664,-0.180664 h 0.361328 q 0.180664,0 0.180664,0.180664 z m 1.074219,0 v 0.361328 q 0,0.180664 -0.180664,0.180664 h -0.361328 q -0.180665,0 -0.180665,-0.180664 v -0.361328 q 0,-0.180664 0.180665,-0.180664 h 0.361328 q 0.180664,0 0.180664,0.180664 z m 1.079101,0 v 0.361328 q 0,0.180664 -0.180664,0.180664 h -0.361328 q -0.180664,0 -0.180664,-0.180664 v -0.361328 q 0,-0.180664 0.180664,-0.180664 h 0.361328 q 0.180664,0 0.180664,0.180664 z m 1.079102,0 v 0.361328 q 0,0.180664 -0.180664,0.180664 h -0.361328 q -0.180664,0 -0.180664,-0.180664 v -0.361328 q 0,-0.180664 0.180664,-0.180664 h 0.361328 q 0.180664,0 0.180664,0.180664 z m 1.079101,0 v 0.361328 q 0,0.180664 -0.180664,0.180664 h -0.361328 q -0.180664,0 -0.180664,-0.180664 v -0.361328 q 0,-0.180664 0.180664,-0.180664 h 0.361328 q 0.180664,0 0.180664,0.180664 z m 1.079102,0 v 0.361328 q 0,0.180664 -0.180664,0.180664 h -0.361328 q -0.180664,0 -0.180664,-0.180664 v -0.361328 q 0,-0.180664 0.180664,-0.180664 h 0.361328 q 0.180664,0 0.180664,0.180664 z m 1.396484,0 v 0.361328 q 0,0.180664 -0.180664,0.180664 h -0.678711 q -0.180664,0 -0.180664,-0.180664 v -0.361328 q 0,-0.180664 0.180664,-0.180664 h 0.678711 q 0.180664,0 0.180664,0.180664 z m -0.180664,0.888672 q 0.180664,0 0.180664,0.180664 v 1.416016 q 0,0.180664 -0.180664,0.180664 h -1.201172 q -0.205078,0 -0.205078,-0.180664 v -0.727539 q 0,-0.15625 -0.175781,-0.15625 -0.180664,0 -0.180664,-0.180664 v -0.356446 q 0,-0.180664 0.180664,-0.180664 z m -0.859375,3.393555 v 0.361328 q 0,0.180664 -0.180664,0.180664 h -0.361328 q -0.180664,0 -0.180664,-0.180664 v -0.361328 q 0,-0.180664 0.180664,-0.180664 h 0.361328 q 0.180664,0 0.180664,0.180664 z m 1.088867,0 v 0.361328 q 0,0.180664 -0.180664,0.180664 h -0.366211 q -0.175781,0 -0.175781,-0.180664 v -0.361328 q 0,-0.180664 0.175781,-0.180664 h 0.366211 q 0.180664,0 0.180664,0.180664 z m -7.944335,0.541992 q -0.180665,0 -0.180665,-0.180664 v -0.361328 q 0,-0.180664 0.180665,-0.180664 h 5.019531 q 0.180664,0 0.180664,0.180664 v 0.361328 q 0,0.180664 -0.180664,0.180664 z"
         style="stroke-width:0.20721436px"
         id="path4816" />
    </g>
  </g>
</svg>
