<?xml version="1.0" encoding="UTF-8" standalone="no"?>
<!-- Created with Inkscape (http://www.inkscape.org/) -->

<svg
   xmlns:dc="http://purl.org/dc/elements/1.1/"
   xmlns:cc="http://creativecommons.org/ns#"
   xmlns:rdf="http://www.w3.org/1999/02/22-rdf-syntax-ns#"
   xmlns:svg="http://www.w3.org/2000/svg"
   xmlns="http://www.w3.org/2000/svg"
   xmlns:sodipodi="http://sodipodi.sourceforge.net/DTD/sodipodi-0.dtd"
   xmlns:inkscape="http://www.inkscape.org/namespaces/inkscape"
   width="16.933332mm"
   height="16.933332mm"
   viewBox="0 0 16.933332 16.933332"
   version="1.1"
   id="svg8"
   sodipodi:docname="hdd.svg"
   inkscape:version="0.92.2 2405546, 2018-03-11">
  <defs
     id="defs2" />
  <sodipodi:namedview
     id="base"
     pagecolor="#ffffff"
     bordercolor="#666666"
     borderopacity="1.0"
     inkscape:pageopacity="0.0"
     inkscape:pageshadow="2"
     inkscape:zoom="5.6"
     inkscape:cx="13.28418"
     inkscape:cy="14.886884"
     inkscape:document-units="mm"
     inkscape:current-layer="layer1"
     showgrid="false"
     fit-margin-top="0"
     fit-margin-left="0"
     fit-margin-right="0"
     fit-margin-bottom="0"
     inkscape:window-width="1920"
     inkscape:window-height="1020"
     inkscape:window-x="0"
     inkscape:window-y="30"
     inkscape:window-maximized="1" />
  <metadata
     id="metadata5">
    <rdf:RDF>
      <cc:Work
         rdf:about="">
        <dc:format>image/svg+xml</dc:format>
        <dc:type
           rdf:resource="http://purl.org/dc/dcmitype/StillImage" />
        <dc:title></dc:title>
      </cc:Work>
    </rdf:RDF>
  </metadata>
  <g
     inkscape:label="Layer 1"
     inkscape:groupmode="layer"
     id="layer1"
     transform="translate(-107.87666,-24.618942)">
    <flowRoot
       xml:space="preserve"
       id="flowRoot5064"
       style="fill:black;stroke:none;stroke-opacity:1;stroke-width:1px;stroke-linejoin:miter;stroke-linecap:butt;fill-opacity:1;font-family:Adobe Garamond Pro;font-style:normal;font-weight:bold;font-size:10px;line-height:125%;letter-spacing:0px;word-spacing:0px;-inkscape-font-specification:Adobe Garamond Pro Bold;font-stretch:normal;font-variant:normal;text-anchor:start;text-align:start;writing-mode:lr"><flowRegion
         id="flowRegion5066"><rect
           id="rect5068"
           width="50.892857"
           height="43.57143"
           x="-72.321426"
           y="5.4285674" /></flowRegion><flowPara
         id="flowPara5070"></flowPara></flowRoot>    <g
       aria-label="🖴"
       transform="matrix(1.8649046,0,0,1.8649046,248.12652,14.45492)"
       style="font-style:normal;font-variant:normal;font-weight:bold;font-stretch:normal;font-size:10px;line-height:125%;font-family:'Adobe Garamond Pro';-inkscape-font-specification:'Adobe Garamond Pro Bold';text-align:start;letter-spacing:0px;word-spacing:0px;writing-mode:lr-tb;text-anchor:start;fill:#000000;fill-opacity:1;stroke:none;stroke-width:0.141875px;stroke-linecap:butt;stroke-linejoin:miter;stroke-opacity:1"
       id="flowRoot5072">
      <path
         d="m -75.064844,9.6551562 1.16,-2.35 q 0.07,-0.1299999 0.14,-0.24 0.08,-0.12 0.24,-0.12 h 5.72 q 0.16,0 0.23,0.12 0.08,0.1100001 0.15,0.24 l 1.16,2.35 z m 4.4,-0.4 q 0.62,0 1.12,-0.1399999 0.51,-0.14 0.8,-0.37 0.3,-0.23 0.3,-0.5100001 0,-0.28 -0.3,-0.5 -0.29,-0.23 -0.8,-0.36 -0.5,-0.14 -1.12,-0.14 -0.8,0 -1.41,0.23 -0.6,0.23 -0.77,0.5800001 l 1.32,0.01 -0.03,0.21 -1.31,0.11 q 0.07,0.24 0.37,0.44 0.31,0.2 0.78,0.32 0.48,0.1199999 1.05,0.1199999 z m 0,-0.7899999 q -0.24,0 -0.42,-0.08 -0.17,-0.09 -0.17,-0.2 0,-0.1100001 0.17,-0.1900001 0.18,-0.08 0.42,-0.08 0.25,0 0.43,0.08 0.18,0.08 0.18,0.1900001 0,0.11 -0.18,0.2 -0.18,0.08 -0.43,0.08 z m -4.02,4.5699997 q -0.22,0 -0.37,-0.15 -0.15,-0.16 -0.15,-0.37 V 9.9851562 h 9.08 v 2.5299998 q 0,0.21 -0.15,0.37 -0.14,0.15 -0.37,0.15 z m -0.05,-2.05 h 8.14 v -0.47 h -8.14 z m 7.8,1.08 q 0.13,0 0.21,-0.09 0.08,-0.09 0.08,-0.22 0,-0.11 -0.08,-0.2 -0.08,-0.09 -0.21,-0.09 -0.13,0 -0.22,0.09 -0.09,0.09 -0.09,0.2 0,0.13 0.09,0.22 0.09,0.09 0.22,0.09 z"
         style="stroke-width:0.141875px"
         id="path5080"
         inkscape:connector-curvature="0" />
    </g>
  </g>
</svg>
