<?xml version="1.0" standalone="no"?><!DOCTYPE svg PUBLIC "-//W3C//DTD SVG 1.1//EN" "http://www.w3.org/Graphics/SVG/1.1/DTD/svg11.dtd"><svg t="1759139696251" class="icon" viewBox="0 0 1024 1024" version="1.1" xmlns="http://www.w3.org/2000/svg" p-id="18541" width="512" height="512" xmlns:xlink="http://www.w3.org/1999/xlink"><path d="M901.547833 843.270597c1.499414-1.699336 2.998829-3.498633 4.398282-5.197969 1.199531-1.399453 2.299102-2.798907 3.498633-4.19836 1.299492-1.599375 2.598985-3.19875 3.898477-4.898087 1.199531-1.499414 2.299102-2.998829 3.498634-4.498243 1.199531-1.599375 2.499024-3.19875 3.698555-4.798125 1.199531-1.499414 2.299102-3.09879 3.398672-4.598204 1.199531-1.599375 2.399063-3.19875 3.598595-4.898087 1.09957-1.599375 2.199141-3.09879 3.298711-4.698165 1.199531-1.699336 2.299102-3.298711 3.498633-4.998047 1.09957-1.599375 2.09918-3.09879 3.198751-4.698165 1.09957-1.699336 2.299102-3.398672 3.398672-5.098009 0.99961-1.599375 2.09918-3.19875 3.09879-4.798125 1.09957-1.699336 2.199141-3.498633 3.298711-5.297931 0.99961-1.599375 1.999219-3.19875 2.898868-4.798126 1.09957-1.799297 2.199141-3.698555 3.298711-5.597813 0.899649-1.499414 1.799297-3.09879 2.698946-4.598204 1.199531-2.09918 2.399063-4.19836 3.598594-6.397501 0.699727-1.299492 1.499414-2.598985 2.199141-3.998438l5.397892-10.196017c0.699727-1.299492 1.299492-2.598985 1.999219-3.998438 1.09957-2.199141 2.199141-4.398282 3.298711-6.697384 0.699727-1.499414 1.499414-3.09879 2.199141-4.598204 0.99961-1.999219 1.899258-4.098399 2.898868-6.097618 0.699727-1.599375 1.499414-3.298711 2.199141-4.898087 0.899649-1.999219 1.799297-3.998438 2.598985-5.997657 0.699727-1.699336 1.399453-3.398672 2.09918-4.998048 0.799688-1.999219 1.699336-3.998438 2.499023-5.997657 0.699727-1.699336 1.299492-3.398672 1.999219-5.098008 0.799688-1.999219 1.599375-4.098399 2.299102-6.097618 0.599766-1.699336 1.299492-3.398672 1.899258-5.098009 0.799688-2.09918 1.499414-4.19836 2.199141-6.29754 0.599766-1.699336 1.199531-3.398672 1.699337-5.098009l2.09918-6.597422c0.499805-1.599375 0.99961-3.19875 1.599375-4.898087 0.699727-2.399063 1.399453-4.698165 2.09918-7.097228 0.399844-1.499414 0.899649-2.898868 1.299492-4.398282 0.899649-3.09879 1.699336-6.097618 2.499024-9.196407 0.199922-0.799688 0.399844-1.599375 0.699727-2.399063 0.99961-3.898477 1.999219-7.796954 2.898867-11.695432 0.299883-1.299492 0.599766-2.499024 0.799688-3.798516l1.799297-8.096837c0.299883-1.599375 0.599766-3.19875 0.899649-4.698165 0.499805-2.399063 0.99961-4.798126 1.399453-7.297149l0.899649-5.098009c0.399844-2.299102 0.799688-4.698165 1.199531-6.997267 0.299883-1.699336 0.499805-3.498633 0.799688-5.197969 0.299883-2.299102 0.699727-4.698165 0.999609-6.997267 0.199922-1.799297 0.499805-3.498633 0.699727-5.29793 0.299883-2.299102 0.599766-4.698165 0.799688-6.997267 0.199922-1.799297 0.399844-3.498633 0.599765-5.297931l0.599766-7.197188c0.099961-1.699336 0.299883-3.498633 0.399844-5.19797 0.199922-2.499024 0.299883-4.998048 0.499805-7.497071 0.099961-1.599375 0.199922-3.298711 0.299882-4.898087l0.299883-8.39672c0-1.399453 0.099961-2.798907 0.099961-4.098399 0.099961-4.19836 0.199922-8.39672 0.199922-12.59508 0-148.841859-63.875049-282.989457-165.635299-376.552909l-0.399843-0.399844c-2.698946-2.499024-5.497852-4.898087-8.196799-7.39711-0.299883-0.199922-0.499805-0.499805-0.799687-0.699727L840.671613 120.153065c-0.399844-0.299883-0.799688-0.699727-1.199532-0.999609-2.598985-2.199141-5.29793-4.398282-7.996876-6.497462-0.499805-0.399844-0.99961-0.799688-1.399453-1.199532-2.598985-2.09918-5.19797-4.098399-7.896916-6.097618-0.599766-0.399844-1.09957-0.899649-1.699336-1.299492-2.598985-1.899258-5.19797-3.898477-7.796954-5.797735-0.699727-0.499805-1.299492-0.99961-1.999219-1.499415-2.499024-1.799297-5.098009-3.598594-7.696994-5.397891-0.799688-0.499805-1.499414-1.09957-2.299101-1.599375-2.499024-1.699336-5.098009-3.398672-7.597033-5.098009-0.799688-0.599766-1.699336-1.09957-2.499024-1.699336-2.499024-1.599375-4.998048-3.19875-7.597032-4.798126-0.899649-0.599766-1.799297-1.09957-2.698946-1.699336-2.499024-1.499414-4.998048-3.09879-7.497071-4.598204l-2.998829-1.799297c-2.499024-1.399453-4.898087-2.898868-7.39711-4.298321-1.09957-0.599766-2.09918-1.199531-3.198751-1.799297-2.399063-1.399453-4.898087-2.698946-7.39711-3.998438-1.09957-0.599766-2.299102-1.199531-3.398673-1.799297-2.399063-1.299492-4.898087-2.499024-7.297149-3.698556-1.199531-0.599766-2.399063-1.199531-3.698556-1.799297-2.399063-1.199531-4.798126-2.399063-7.197188-3.498633l-3.898477-1.799297-7.197189-3.298712c-1.399453-0.599766-2.698946-1.199531-4.098399-1.799297-2.399063-0.99961-4.698165-1.999219-7.097228-2.998829-1.399453-0.599766-2.898868-1.199531-4.298321-1.799297-2.299102-0.99961-4.698165-1.899258-6.997266-2.798906-1.499414-0.599766-2.998829-1.09957-4.498243-1.699337-2.299102-0.899649-4.698165-1.699336-6.997267-2.598984-1.599375-0.599766-3.09879-1.09957-4.698165-1.699337l-6.897305-2.399062c-1.599375-0.499805-3.298711-1.09957-4.898087-1.599376-2.299102-0.699727-4.598204-1.499414-6.797345-2.199141l-5.098008-1.499414c-2.299102-0.699727-4.498243-1.299492-6.797345-1.999219-1.799297-0.499805-3.498633-0.99961-5.297931-1.399453-2.199141-0.599766-4.498243-1.199531-6.697384-1.799297-1.799297-0.499805-3.698555-0.899649-5.497852-1.399454-2.199141-0.499805-4.398282-1.09957-6.597423-1.599375-1.899258-0.399844-3.798516-0.799688-5.697774-1.299492-2.199141-0.499805-4.298321-0.899649-6.497462-1.399454-1.999219-0.399844-3.998438-0.799688-5.997657-1.09957-2.09918-0.399844-4.298321-0.799688-6.397501-1.199532-1.999219-0.399844-4.098399-0.699727-6.197579-0.999609-2.09918-0.299883-4.19836-0.699727-6.29754-0.99961-2.09918-0.299883-4.298321-0.599766-6.397501-0.899648-2.09918-0.299883-4.098399-0.599766-6.197579-0.799688-2.199141-0.299883-4.398282-0.499805-6.697384-0.799688-1.999219-0.199922-3.998438-0.499805-5.997657-0.699726l-6.897306-0.599766c-1.899258-0.199922-3.898477-0.399844-5.797735-0.499805-2.499024-0.199922-4.998048-0.299883-7.397111-0.499804l-5.397891-0.299883c-2.898868-0.099961-5.697774-0.199922-8.596642-0.299883-1.499414 0-2.898868-0.099961-4.398282-0.199922-4.298321-0.099961-8.696603-0.199922-12.994924-0.199922-4.398282 0-8.696603 0.099961-12.994924 0.199922-1.499414 0-2.898868 0.099961-4.398282 0.199922-2.898868 0.099961-5.697774 0.199922-8.596642 0.299883l-5.397891 0.299883c-2.499024 0.199922-4.998048 0.299883-7.397111 0.499804-1.999219 0.099961-3.898477 0.299883-5.797735 0.499805l-6.897306 0.599766c-1.999219 0.199922-3.998438 0.399844-5.997657 0.699726-2.199141 0.299883-4.398282 0.499805-6.697384 0.799688-2.09918 0.299883-4.098399 0.599766-6.197579 0.799688-2.09918 0.299883-4.298321 0.599766-6.397501 0.899648-2.09918 0.299883-4.19836 0.699727-6.29754 0.99961-2.09918 0.299883-4.098399 0.699727-6.197579 0.999609-2.09918 0.399844-4.298321 0.799688-6.397501 1.199532-1.999219 0.399844-3.998438 0.699727-5.997657 1.09957-2.199141 0.399844-4.298321 0.899649-6.497462 1.399454-1.899258 0.399844-3.798516 0.799688-5.697774 1.299492-2.199141 0.499805-4.398282 0.99961-6.597423 1.599375-1.799297 0.399844-3.698555 0.899649-5.497852 1.399454-2.199141 0.599766-4.498243 1.199531-6.697384 1.799297-1.799297 0.499805-3.498633 0.899649-5.297931 1.399453-2.299102 0.599766-4.498243 1.299492-6.797345 1.999219l-5.098008 1.499414c-2.299102 0.699727-4.598204 1.399453-6.797345 2.199141-1.599375 0.499805-3.298711 1.09957-4.898087 1.599376l-6.897305 2.399062c-1.599375 0.499805-3.09879 1.09957-4.698165 1.699337-2.299102 0.799688-4.698165 1.699336-6.997267 2.598984-1.499414 0.599766-2.998829 1.09957-4.498243 1.699337-2.399063 0.899649-4.698165 1.899258-6.997266 2.798906-1.399453 0.599766-2.898868 1.199531-4.298321 1.799297-2.399063 0.99961-4.698165 1.999219-7.097228 2.998829-1.399453 0.599766-2.698946 1.199531-4.098399 1.799297l-7.197189 3.298712-3.898477 1.799297c-2.399063 1.09957-4.798126 2.299102-7.197188 3.498633-1.199531 0.599766-2.399063 1.199531-3.698556 1.799297-2.399063 1.199531-4.898087 2.499024-7.297149 3.698556-1.199531 0.599766-2.299102 1.199531-3.398673 1.799297-2.499024 1.299492-4.898087 2.698946-7.39711 3.998438-1.09957 0.599766-2.09918 1.199531-3.198751 1.799297-2.499024 1.399453-4.998048 2.798907-7.497071 4.298321-0.99961 0.599766-1.999219 1.199531-2.998829 1.699336-2.499024 1.499414-4.998048 2.998829-7.497071 4.598204-0.899649 0.599766-1.799297 1.09957-2.698946 1.699336-2.499024 1.599375-5.098009 3.19875-7.597032 4.798126-0.799688 0.499805-1.699336 1.09957-2.499024 1.699336-2.598985 1.699336-5.098009 3.398672-7.597033 5.098009-0.799688 0.499805-1.499414 0.99961-2.299101 1.599375-2.598985 1.799297-5.098009 3.598594-7.696994 5.397891-0.699727 0.499805-1.299492 0.99961-1.999219 1.499415-2.598985 1.899258-5.19797 3.798516-7.796954 5.797735-0.599766 0.399844-1.09957 0.899649-1.699336 1.299492-2.598985 1.999219-5.29793 4.098399-7.896916 6.097618-0.499805 0.399844-0.99961 0.799688-1.399453 1.199532-2.698946 2.09918-5.29793 4.298321-7.996876 6.497462-0.399844 0.299883-0.799688 0.699727-1.199532 0.999609l-8.096837 6.897306c-0.299883 0.199922-0.499805 0.499805-0.799687 0.699727-2.798907 2.399063-5.497852 4.898087-8.196799 7.39711l-0.399843 0.399844C63.875049 229.010543 0 363.158141 0 512c0 4.19836 0.099961 8.39672 0.199922 12.59508 0 1.399453 0.099961 2.798907 0.099961 4.098399l0.299883 8.39672c0.099961 1.599375 0.199922 3.298711 0.299883 4.898087 0.099961 2.499024 0.299883 4.998048 0.499804 7.497071 0.099961 1.699336 0.299883 3.498633 0.399844 5.19797l0.599766 7.197188c0.199922 1.799297 0.399844 3.498633 0.599766 5.297931 0.299883 2.399063 0.499805 4.698165 0.799687 6.997267 0.199922 1.799297 0.399844 3.498633 0.699727 5.29793 0.299883 2.299102 0.599766 4.698165 0.999609 6.997267 0.299883 1.699336 0.499805 3.498633 0.799688 5.197969 0.399844 2.399063 0.799688 4.698165 1.199531 7.097228l0.899649 5.098009c0.399844 2.399063 0.899649 4.798126 1.399453 7.297149 0.299883 1.599375 0.599766 3.19875 0.899649 4.698165l1.799297 8.096837c0.299883 1.299492 0.499805 2.499024 0.799688 3.798516 0.899649 3.898477 1.899258 7.796954 2.898867 11.695432 0.199922 0.799688 0.399844 1.599375 0.699727 2.399063 0.799688 3.09879 1.599375 6.197579 2.499024 9.196407 0.399844 1.499414 0.899649 2.898868 1.299492 4.398282 0.699727 2.399063 1.399453 4.798126 2.09918 7.097228 0.499805 1.599375 0.99961 3.19875 1.499415 4.898087l2.09918 6.597422c0.599766 1.699336 1.199531 3.398672 1.699336 4.998048 0.699727 2.09918 1.499414 4.19836 2.199141 6.29754 0.599766 1.699336 1.199531 3.398672 1.899258 5.098009 0.799688 1.999219 1.499414 4.098399 2.299102 6.097618 0.699727 1.699336 1.299492 3.398672 1.999219 5.098008 0.799688 1.999219 1.599375 3.998438 2.499024 5.997658 0.699727 1.699336 1.399453 3.398672 2.09918 4.998047 0.899649 1.999219 1.699336 3.998438 2.598984 5.997657 0.699727 1.599375 1.499414 3.298711 2.199141 4.898087 0.899649 1.999219 1.899258 4.098399 2.798907 6.097618 0.699727 1.599375 1.499414 3.09879 2.199141 4.698165 1.09957 2.199141 2.199141 4.398282 3.298711 6.697384 0.699727 1.299492 1.299492 2.598985 1.999219 3.998438l5.397892 10.196017c0.699727 1.299492 1.499414 2.598985 2.199141 3.998438 1.199531 2.09918 2.299102 4.19836 3.598594 6.29754 0.899649 1.499414 1.799297 3.09879 2.698946 4.598204 1.09957 1.899258 2.199141 3.698555 3.298711 5.597813 0.99961 1.599375 1.999219 3.19875 2.898868 4.798126 1.09957 1.799297 2.199141 3.498633 3.298711 5.297931 0.99961 1.599375 2.09918 3.19875 3.09879 4.798125 1.09957 1.699336 2.199141 3.398672 3.398672 5.098009 1.09957 1.599375 2.09918 3.19875 3.198751 4.698165 1.09957 1.699336 2.299102 3.298711 3.498633 4.998047 1.09957 1.599375 2.199141 3.09879 3.298712 4.698165 1.199531 1.599375 2.399063 3.298711 3.598594 4.898087 1.09957 1.499414 2.299102 3.09879 3.398672 4.598204 1.199531 1.599375 2.499024 3.19875 3.698556 4.798125 1.199531 1.499414 2.299102 2.998829 3.498633 4.498243 1.299492 1.599375 2.598985 3.298711 3.898477 4.898087 1.199531 1.399453 2.299102 2.798907 3.498633 4.298321 1.499414 1.799297 2.898868 3.498633 4.398282 5.197969 11.095666 12.994924 22.791097 25.490043 35.186256 37.385397 2.798907 2.598985 5.497852 5.29793 8.39672 7.896915 0.199922 0.099961 0.299883 0.299883 0.499804 0.399844 2.698946 2.499024 5.397891 4.898087 8.196799 7.39711 0.299883 0.199922 0.499805 0.499805 0.799687 0.699727 2.698946 2.299102 5.29793 4.598204 7.996876 6.897306 0.399844 0.299883 0.799688 0.699727 1.199532 0.999609 2.598985 2.199141 5.29793 4.298321 7.896915 6.497462 0.499805 0.399844 0.99961 0.799688 1.399453 1.199532 2.598985 2.09918 5.19797 4.098399 7.796955 6.097618 0.599766 0.399844 1.199531 0.899649 1.799297 1.299492 2.598985 1.899258 5.19797 3.898477 7.796954 5.797735 0.699727 0.499805 1.299492 0.99961 1.999219 1.499415 2.499024 1.799297 5.098009 3.598594 7.696994 5.397891 0.799688 0.499805 1.499414 1.09957 2.299102 1.599375 2.499024 1.699336 5.098009 3.398672 7.597032 5.098009 0.799688 0.599766 1.699336 1.09957 2.499024 1.699336l7.497071 4.798126c0.899649 0.599766 1.799297 1.199531 2.798907 1.699336l7.497071 4.498243 2.998829 1.799297c2.499024 1.399453 4.898087 2.898868 7.39711 4.298321 1.09957 0.599766 2.09918 1.199531 3.198751 1.799297 2.399063 1.399453 4.898087 2.698946 7.39711 3.998438 1.199531 0.599766 2.299102 1.199531 3.498634 1.799297 2.399063 1.299492 4.798126 2.499024 7.297149 3.698556 1.199531 0.599766 2.399063 1.199531 3.698556 1.799297 2.399063 1.199531 4.798126 2.299102 7.197188 3.498633l3.898477 1.799297 7.197189 3.298712c1.399453 0.599766 2.698946 1.199531 4.098399 1.799297 2.399063 0.99961 4.698165 1.999219 7.097228 2.998829 1.399453 0.599766 2.898868 1.199531 4.298321 1.799297 2.299102 0.99961 4.698165 1.899258 7.097227 2.798906 1.499414 0.599766 2.998829 1.09957 4.498243 1.699337 2.299102 0.899649 4.698165 1.799297 6.997267 2.598984 1.599375 0.599766 3.09879 1.09957 4.698165 1.699337l6.897305 2.399062c1.599375 0.499805 3.298711 1.09957 4.898087 1.599376 2.299102 0.699727 4.498243 1.499414 6.797345 2.199141l5.098008 1.499414c2.199141 0.699727 4.498243 1.299492 6.797345 1.999219 1.799297 0.499805 3.498633 0.99961 5.297931 1.399453 2.199141 0.599766 4.498243 1.199531 6.697384 1.799297 1.799297 0.499805 3.698555 0.899649 5.497852 1.399454 2.199141 0.499805 4.398282 1.09957 6.597423 1.599375 1.899258 0.399844 3.798516 0.799688 5.697774 1.299492 2.199141 0.499805 4.298321 0.899649 6.497462 1.399454 1.999219 0.399844 3.998438 0.799688 5.897696 1.09957 2.09918 0.399844 4.298321 0.799688 6.397501 1.199532 1.999219 0.399844 4.098399 0.699727 6.197579 0.999609 2.09918 0.299883 4.19836 0.699727 6.29754 0.99961 2.09918 0.299883 4.298321 0.599766 6.397501 0.899648 2.09918 0.299883 4.098399 0.599766 6.197579 0.799688 2.199141 0.299883 4.398282 0.499805 6.697384 0.799688 1.999219 0.199922 3.998438 0.499805 5.997657 0.699726l6.897306 0.599766c1.899258 0.199922 3.898477 0.399844 5.797735 0.499805 2.499024 0.199922 4.998048 0.299883 7.397111 0.499804l5.397891 0.299883c2.898868 0.099961 5.697774 0.199922 8.596642 0.299883 1.499414 0 2.898868 0.099961 4.398282 0.199922 4.298321 0.099961 8.696603 0.199922 12.994924 0.199922 4.398282 0 8.696603-0.099961 12.994924-0.199922 1.499414 0 2.898868-0.099961 4.398282-0.199922 2.898868-0.099961 5.697774-0.199922 8.596642-0.299883l5.397891-0.299883c2.499024-0.199922 4.998048-0.299883 7.397111-0.499804 1.999219-0.099961 3.898477-0.299883 5.797735-0.499805l6.897306-0.599766c1.999219-0.199922 3.998438-0.399844 5.997657-0.699726 2.199141-0.299883 4.398282-0.499805 6.697384-0.799688 2.09918-0.299883 4.098399-0.599766 6.197579-0.799688 2.09918-0.299883 4.298321-0.599766 6.397501-0.899648 2.09918-0.299883 4.19836-0.699727 6.29754-0.99961 2.09918-0.299883 4.098399-0.699727 6.197579-0.999609 2.09918-0.399844 4.298321-0.799688 6.397501-1.199532 1.999219-0.399844 3.998438-0.699727 5.897696-1.09957 2.199141-0.399844 4.298321-0.899649 6.497462-1.399454 1.899258-0.399844 3.798516-0.799688 5.697774-1.299492 2.199141-0.499805 4.398282-0.99961 6.597423-1.599375 1.799297-0.399844 3.698555-0.899649 5.497853-1.399454 2.199141-0.599766 4.498243-1.199531 6.697383-1.799297 1.799297-0.499805 3.498633-0.899649 5.297931-1.399453 2.299102-0.599766 4.498243-1.299492 6.797345-1.999219l5.098008-1.499414c2.299102-0.699727 4.598204-1.399453 6.797345-2.199141 1.599375-0.499805 3.298711-1.09957 4.898087-1.599376l6.897306-2.399062c1.599375-0.499805 3.09879-1.09957 4.698164-1.699337 2.299102-0.799688 4.698165-1.699336 6.997267-2.598984 1.499414-0.599766 2.998829-1.09957 4.498243-1.699337 2.399063-0.899649 4.698165-1.899258 7.097228-2.798906 1.399453-0.599766 2.898868-1.199531 4.29832-1.799297 2.399063-0.99961 4.798126-1.999219 7.097228-2.998829 1.399453-0.599766 2.698946-1.199531 4.098399-1.799297l7.197189-3.298712 3.898477-1.799297c2.399063-1.09957 4.798126-2.299102 7.197189-3.498633 1.199531-0.599766 2.499024-1.199531 3.698555-1.799297 2.399063-1.199531 4.898087-2.499024 7.297149-3.698556 1.199531-0.599766 2.299102-1.199531 3.498634-1.799297 2.499024-1.299492 4.898087-2.598985 7.39711-3.998438 1.09957-0.599766 2.09918-1.199531 3.198751-1.799297 2.499024-1.399453 4.998048-2.798907 7.39711-4.298321l2.998829-1.799297 7.497071-4.498243c0.899649-0.599766 1.799297-1.199531 2.798907-1.699336l7.497071-4.798126c0.799688-0.499805 1.699336-1.09957 2.499024-1.699336 2.499024-1.699336 5.098009-3.398672 7.597033-5.098009 0.799688-0.499805 1.499414-1.09957 2.299102-1.599375 2.598985-1.799297 5.098009-3.598594 7.696993-5.397891 0.699727-0.499805 1.299492-0.99961 1.999219-1.499415 2.598985-1.899258 5.19797-3.798516 7.796954-5.797735 0.599766-0.399844 1.199531-0.899649 1.799297-1.299492 2.598985-1.999219 5.29793-3.998438 7.796955-6.097618 0.499805-0.399844 0.99961-0.799688 1.399453-1.199532 2.698946-2.09918 5.29793-4.298321 7.896915-6.497462 0.399844-0.299883 0.799688-0.699727 1.199532-0.999609 2.698946-2.299102 5.397891-4.598204 7.996876-6.897306 0.299883-0.199922 0.499805-0.499805 0.799688-0.699727 2.798907-2.399063 5.497852-4.898087 8.196798-7.39711 0.199922-0.099961 0.299883-0.299883 0.499804-0.399844 2.798907-2.598985 5.597813-5.19797 8.396721-7.896915 12.395158-11.795392 24.09059-24.290512 35.186255-37.385397z m76.270207-296.484185c-0.099961 1.599375-0.299883 3.298711-0.399844 4.898086l-0.599766 6.597423c-0.199922 1.699336-0.399844 3.398672-0.499804 5.098009-0.199922 2.09918-0.499805 4.19836-0.699727 6.29754-0.199922 1.699336-0.399844 3.398672-0.699727 5.098008-0.299883 2.09918-0.599766 4.098399-0.899648 6.097618-0.299883 1.699336-0.499805 3.498633-0.799688 5.19797-0.299883 1.999219-0.699727 3.998438-0.99961 5.997657-0.299883 1.699336-0.599766 3.498633-0.899648 5.19797-0.399844 1.999219-0.699727 3.998438-1.099571 5.897696-0.299883 1.699336-0.699727 3.498633-1.09957 5.197969-0.399844 1.999219-0.799688 3.898477-1.299492 5.797736-0.399844 1.699336-0.799688 3.398672-1.199532 5.197969-0.499805 1.899258-0.899649 3.898477-1.399453 5.797736-0.399844 1.699336-0.799688 3.398672-1.299493 5.098008-0.499805 1.899258-0.99961 3.798516-1.599375 5.797735-0.499805 1.699336-0.899649 3.398672-1.399453 4.998048-0.599766 1.899258-1.09957 3.798516-1.699336 5.697774-0.499805 1.699336-0.99961 3.298711-1.499415 4.998048-0.599766 1.899258-1.199531 3.798516-1.899258 5.697774-0.499805 1.599375-0.99961 3.19875-1.599375 4.898087-0.699727 1.999219-1.399453 3.998438-2.09918 5.897696-0.499805 1.499414-1.09957 2.998829-1.599375 4.498243-1.199531 3.398672-2.499024 6.697384-3.798516 10.096056-0.599766 1.599375-1.299492 3.298711-1.99922 4.898087-0.699727 1.799297-1.399453 3.498633-2.19914 5.29793-0.699727 1.699336-1.499414 3.398672-2.199141 5.098009-0.699727 1.599375-1.399453 3.298711-2.199141 4.898087-0.799688 1.699336-1.599375 3.498633-2.399063 5.197969-0.699727 1.599375-1.499414 3.19875-2.199141 4.798126-0.799688 1.699336-1.699336 3.498633-2.499024 5.19797-0.799688 1.499414-1.499414 3.09879-2.299102 4.598203-0.899649 1.699336-1.799297 3.398672-2.698946 5.19797l-2.399063 4.498243c-0.899649 1.699336-1.899258 3.398672-2.798906 5.197969-0.799688 1.499414-1.599375 2.898868-2.499024 4.398282l-2.998829 5.098009c-0.799688 1.399453-1.699336 2.898868-2.499023 4.298321-0.99961 1.699336-1.999219 3.398672-3.09879 5.098008-0.899649 1.399453-1.699336 2.798907-2.598985 4.19836-1.09957 1.699336-2.09918 3.398672-3.19875 5.098009-0.899649 1.399453-1.799297 2.698946-2.698946 3.998438-1.09957 1.699336-2.199141 3.398672-3.398672 4.998048l-2.698946 3.898477-3.598594 5.098008c-0.899649 1.199531-1.799297 2.399063-2.698946 3.698556-1.199531 1.699336-2.499024 3.398672-3.798516 5.098008-0.899649 1.09957-1.799297 2.299102-2.598985 3.398673-1.299492 1.699336-2.698946 3.498633-3.998438 5.197969-0.799688 0.99961-1.599375 1.999219-2.399063 2.898868-1.499414 1.799297-2.998829 3.698555-4.498243 5.497852-0.299883 0.399844-0.599766 0.799688-0.999609 1.099571-4.19836 4.998048-8.496681 9.896134-12.795002 14.794221-35.286216-16.693479-75.170636-30.787973-118.753612-41.783678 23.09098-71.871925 37.085513-156.139008 39.284654-247.203437h199.921906c-0.099961 1.09957-0.099961 2.299102-0.199922 3.398673 0.099961 2.199141 0 4.498243-0.199922 6.797345zM765.600937 904.146818c-2.598985 1.699336-5.19797 3.298711-7.796954 4.898086-0.499805 0.299883-0.899649 0.599766-1.399454 0.899649-2.399063 1.499414-4.898087 2.998829-7.39711 4.398282-0.599766 0.399844-1.299492 0.799688-1.899258 1.09957-2.399063 1.399453-4.698165 2.698946-7.097228 4.098399-0.799688 0.399844-1.499414 0.899649-2.299102 1.299493-2.299102 1.299492-4.698165 2.598985-6.997266 3.798516-0.799688 0.499805-1.699336 0.899649-2.499024 1.299492l-6.897306 3.598595c-0.899649 0.499805-1.799297 0.899649-2.698946 1.399453-2.299102 1.09957-4.598204 2.299102-6.897305 3.398672-0.899649 0.399844-1.899258 0.899649-2.798907 1.299493-2.299102 1.09957-4.598204 2.199141-6.997267 3.19875-0.899649 0.399844-1.899258 0.799688-2.798906 1.199532-2.399063 0.99961-4.698165 2.09918-7.097228 3.098789-0.899649 0.399844-1.699336 0.699727-2.598985 1.099571l-7.497071 2.998828c-0.599766 0.199922-1.199531 0.499805-1.799297 0.699727-8.796564 3.398672-17.693089 6.497462-26.789536 9.39633l-1.799297 0.599765c-2.199141 0.699727-4.398282 1.299492-6.497462 1.999219-0.899649 0.299883-1.899258 0.599766-2.798907 0.799688 31.987505-33.58688 59.77665-79.368996 81.868021-134.347521 36.085904 8.996486 69.672784 20.192112 99.761031 33.187037-17.992971 16.193674-37.285435 30.987895-57.67747 44.182741-0.299883 0.199922-0.499805 0.299883-0.599766 0.399844z m-393.346349 53.878953l-1.799297-0.599766c-9.096447-2.898868-17.992971-5.997657-26.789535-9.396329-0.599766-0.199922-1.199531-0.399844-1.699337-0.699727l-7.497071-2.998828c-0.899649-0.399844-1.699336-0.699727-2.598985-0.99961-2.399063-0.99961-4.798126-1.999219-7.097228-3.098789-0.899649-0.399844-1.899258-0.799688-2.798906-1.199532-2.299102-0.99961-4.698165-2.09918-6.997267-3.19875-0.899649-0.399844-1.899258-0.899649-2.798907-1.299493-2.299102-1.09957-4.598204-2.199141-6.897305-3.398672-0.899649-0.499805-1.799297-0.899649-2.698946-1.399453l-6.897306-3.598595c-0.799688-0.399844-1.699336-0.899649-2.499024-1.299492-2.399063-1.299492-4.698165-2.499024-6.997266-3.798516-0.799688-0.399844-1.499414-0.799688-2.299102-1.299493-2.399063-1.299492-4.798126-2.698946-7.097228-4.098399-0.599766-0.399844-1.299492-0.799688-1.899258-1.09957-2.499024-1.499414-4.898087-2.898868-7.39711-4.398282-0.499805-0.299883-0.899649-0.599766-1.399454-0.799688-2.598985-1.599375-5.19797-3.298711-7.796954-4.898086-0.099961-0.099961-0.299883-0.199922-0.399844-0.299883-20.392034-13.294807-39.584537-27.989067-57.577509-44.182741 30.088247-12.994924 63.675127-24.190551 99.761031-33.187037 21.99141 54.978524 49.880515 100.76064 81.86802 134.347521-0.899649-0.299883-1.899258-0.599766-2.798906-0.799688-2.598985-0.99961-4.798126-1.699336-6.897306-2.299102zM151.840687 809.583756c-1.499414-1.799297-2.998829-3.698555-4.498243-5.497852-0.799688-0.99961-1.599375-1.899258-2.299102-2.898868-1.399453-1.699336-2.698946-3.498633-3.998438-5.197969-0.899649-1.09957-1.699336-2.199141-2.598984-3.398673-1.299492-1.699336-2.499024-3.398672-3.798517-5.098008-0.899649-1.199531-1.799297-2.399063-2.698945-3.698555l-3.598595-5.098009-2.698945-3.898477c-1.09957-1.699336-2.299102-3.398672-3.398673-5.098009-0.899649-1.299492-1.799297-2.698946-2.598985-3.998438-1.09957-1.699336-2.199141-3.398672-3.19875-5.098009-0.899649-1.399453-1.699336-2.798907-2.598985-4.19836-0.99961-1.699336-2.09918-3.398672-3.098789-5.098008-0.899649-1.399453-1.699336-2.898868-2.499024-4.298321-0.99961-1.699336-1.999219-3.398672-2.898868-5.098009-0.799688-1.499414-1.599375-2.898868-2.499024-4.398282-0.899649-1.699336-1.899258-3.398672-2.798906-5.098008l-2.399063-4.498243c-0.899649-1.699336-1.799297-3.398672-2.698946-5.19797-0.799688-1.499414-1.499414-3.09879-2.299102-4.598203-0.899649-1.699336-1.699336-3.498633-2.499024-5.19797-0.799688-1.599375-1.499414-3.19875-2.199141-4.798126-0.799688-1.699336-1.599375-3.398672-2.399062-5.197969-0.699727-1.599375-1.399453-3.298711-2.199141-4.898087-0.699727-1.699336-1.499414-3.398672-2.199141-5.098009-0.699727-1.799297-1.499414-3.598594-2.199141-5.397891-0.699727-1.599375-1.299492-3.19875-1.999219-4.798126-1.299492-3.298711-2.598985-6.697384-3.798517-10.096056-0.499805-1.499414-1.09957-2.998829-1.599375-4.498243l-2.09918-5.997657c-0.499805-1.599375-1.09957-3.19875-1.599375-4.898087-0.599766-1.899258-1.299492-3.798516-1.899258-5.697774-0.499805-1.699336-0.99961-3.298711-1.499414-4.998048-0.599766-1.899258-1.199531-3.798516-1.699337-5.697774-0.499805-1.699336-0.899649-3.398672-1.399453-5.098008-0.499805-1.899258-1.09957-3.798516-1.599375-5.797736-0.399844-1.699336-0.899649-3.398672-1.299493-5.098008-0.499805-1.899258-0.99961-3.898477-1.399453-5.797736l-1.199531-5.098008c-0.399844-1.999219-0.899649-3.898477-1.299493-5.897696-0.399844-1.699336-0.699727-3.398672-1.09957-5.19797-0.399844-1.999219-0.799688-3.998438-1.099571-5.897696-0.299883-1.699336-0.599766-3.498633-0.899648-5.19797-0.299883-1.999219-0.699727-3.998438-0.99961-5.997657-0.299883-1.699336-0.499805-3.498633-0.799687-5.197969-0.299883-1.999219-0.599766-4.098399-0.899649-6.097619-0.199922-1.699336-0.499805-3.398672-0.699727-5.098008-0.299883-2.09918-0.499805-4.19836-0.699726-6.29754-0.199922-1.699336-0.399844-3.398672-0.499805-5.098009l-0.599766-6.597423c-0.099961-1.599375-0.299883-3.298711-0.399844-4.898086-0.199922-2.299102-0.299883-4.598204-0.399843-6.897306-0.099961-1.09957-0.099961-2.299102-0.199922-3.398672h199.921905c2.09918 91.164389 16.193674 175.331511 39.284655 247.203436-43.483014 10.995705-83.467396 25.090199-118.753612 41.783678-4.398282-4.898087-8.696603-9.896134-12.994924-14.894182-0.399844 0-0.699727-0.299883-0.899649-0.699727z m106.158532-689.730574c2.598985-1.699336 5.19797-3.298711 7.796954-4.898086 0.499805-0.299883 0.899649-0.599766 1.399454-0.899649 2.399063-1.499414 4.898087-2.998829 7.39711-4.398282 0.599766-0.399844 1.299492-0.799688 1.899258-1.09957 2.399063-1.399453 4.798126-2.698946 7.097228-4.098399 0.799688-0.399844 1.499414-0.899649 2.299102-1.299493 2.299102-1.299492 4.698165-2.598985 6.997267-3.798516 0.799688-0.499805 1.699336-0.899649 2.499023-1.299492l6.897306-3.598595c0.899649-0.499805 1.799297-0.899649 2.698946-1.399453 2.299102-1.09957 4.598204-2.299102 6.897306-3.398672 0.899649-0.399844 1.899258-0.899649 2.798906-1.299493 2.299102-1.09957 4.598204-2.199141 6.997267-3.19875 0.899649-0.399844 1.899258-0.799688 2.798907-1.199532 2.399063-0.99961 4.798126-2.09918 7.097227-3.098789 0.899649-0.399844 1.699336-0.699727 2.598985-1.099571 2.499024-0.99961 4.998048-2.09918 7.497072-2.998828 0.599766-0.199922 1.199531-0.499805 1.799297-0.699727 8.796564-3.398672 17.693089-6.497462 26.689574-9.39633l1.799297-0.599765c2.199141-0.699727 4.398282-1.299492 6.597423-1.999219 0.899649-0.299883 1.799297-0.599766 2.798907-0.799688-31.987505 33.58688-59.77665 79.368996-81.868021 134.347521-36.085904-8.996486-69.672784-20.192112-99.76103-33.187037 17.992971-16.193674 37.285435-30.987895 57.577508-44.182741 0.399844-0.199922 0.599766-0.299883 0.699727-0.399844z m393.44631-53.878953l1.799297 0.599766c8.996486 2.898868 17.992971 5.997657 26.789536 9.396329 0.599766 0.199922 1.199531 0.499805 1.799297 0.699727l7.497071 2.998828c0.899649 0.399844 1.799297 0.699727 2.598985 1.099571 2.399063 0.99961 4.798126 1.999219 7.097228 3.098789 0.899649 0.399844 1.899258 0.799688 2.798906 1.199532 2.299102 0.99961 4.698165 2.09918 6.997267 3.19875 0.899649 0.399844 1.899258 0.899649 2.798907 1.299493 2.299102 1.09957 4.598204 2.199141 6.997266 3.398672 0.899649 0.399844 1.799297 0.899649 2.698946 1.299492 2.299102 1.199531 4.698165 2.399063 6.997267 3.598595 0.799688 0.399844 1.699336 0.899649 2.499024 1.299492 2.299102 1.299492 4.698165 2.499024 6.997266 3.798516 0.799688 0.399844 1.499414 0.899649 2.299102 1.299493 2.399063 1.299492 4.798126 2.698946 7.097228 4.098399 0.599766 0.399844 1.299492 0.799688 1.899258 1.09957 2.499024 1.499414 4.898087 2.898868 7.39711 4.398282 0.499805 0.299883 0.899649 0.599766 1.399454 0.899649 2.598985 1.599375 5.19797 3.298711 7.796954 4.898086 0.099961 0.099961 0.299883 0.199922 0.399844 0.299883 20.392034 13.294807 39.584537 28.089028 57.67747 44.182741-30.088247 12.994924-63.675127 24.190551-99.761031 33.187037-21.99141-54.978524-49.880515-100.76064-81.868021-134.347521 0.899649 0.299883 1.799297 0.499805 2.698946 0.799688 2.199141 0.899649 4.398282 1.499414 6.597423 2.199141z m127.050371 421.535338c-2.09918-91.164389-16.193674-175.331511-39.284654-247.203437 43.483014-10.995705 83.467396-25.090199 118.753611-41.783678 70.072628 77.269816 114.655213 178.130418 120.452949 289.087076h-199.921906zM487.309645 222.41312c-49.780554-1.299492-97.861773-6.497462-142.744241-14.994143 35.985943-86.566185 86.566185-146.142913 142.744241-159.737603v174.731746z m0 44.482624v220.613823H289.58688c2.299102-86.966029 16.493557-168.534166 39.184694-237.307302 49.380711 9.596251 102.659898 15.393987 158.538071 16.693479z m0 269.594689v220.613823c-55.878173 1.299492-109.15736 7.097228-158.538071 16.693479-22.691136-68.873096-36.885592-150.341273-39.184694-237.307302h197.722765z m0 265.096447v174.731746c-56.178055-13.59469-106.758298-73.171417-142.744241-159.737603 44.982429-8.496681 92.963686-13.694651 142.744241-14.994143z m48.980867 0c49.780554 1.299492 97.861773 6.497462 142.74424 14.994143-35.985943 86.566185-86.566185 146.142913-142.74424 159.737603V801.58688z m0-44.482624V536.490433h197.722764c-2.299102 86.966029-16.493557 168.534166-39.184693 237.307302-49.380711-9.596251-102.659898-15.393987-158.538071-16.693479z m0-269.594689V266.895744c55.878173-1.299492 109.15736-7.097228 158.538071-16.693479 22.691136 68.873096 36.885592 150.341273 39.184693 237.307302H536.290512z m0-265.096447V47.681374c56.178055 13.59469 106.758298 73.171417 142.74424 159.737603-44.982429 8.496681-92.963686 13.694651-142.74424 14.994143z m-370.655213-23.990629c35.286216 16.693479 75.170636 30.787973 118.753612 41.783678-23.09098 71.871925-37.085513 156.139008-39.284655 247.203437h-199.921905c5.697774-110.856697 50.280359-211.617337 120.452948-288.987115z" fill="" p-id="18542"></path></svg>
