<?xml version="1.0" encoding="iso-8859-1"?>
<!-- Uploaded to: SVG Repo, www.svgrepo.com, Generator: SVG Repo Mixer Tools -->
<svg fill="#000000" version="1.1" id="Layer_1" xmlns="http://www.w3.org/2000/svg" xmlns:xlink="http://www.w3.org/1999/xlink" 
	 viewBox="0 0 512 512" xml:space="preserve">
<g>
	<g>
		<g>
			<rect x="191.996" y="68.27" width="17.067" height="17.067"/>
			<rect x="123.729" y="68.27" width="17.067" height="17.067"/>
			<path d="M448,0h-34.133c-4.719,0-8.533,3.814-8.533,8.533V409.6c0,28.237-22.972,51.2-51.2,51.2H243.2
				c-28.237,0-51.2-22.963-51.2-51.2v-17.067c9.412,0,17.067-7.654,17.067-17.067v-34.133h51.2c9.412,0,17.067-7.654,17.067-17.067
				V153.6c0-9.412-7.654-17.067-17.067-17.067v-128c0-4.719-3.823-8.533-8.533-8.533H81.067c-4.719,0-8.533,3.814-8.533,8.533v128
				c-9.421,0-17.067,7.654-17.067,17.067v170.667c0,9.412,7.646,17.067,17.067,17.067h51.2v34.133
				c0,9.412,7.646,17.067,17.067,17.067V409.6c0,56.465,45.935,102.4,102.4,102.4h110.933c56.457,0,102.4-45.935,102.4-102.4V8.533
				C456.533,3.814,452.71,0,448,0z M174.933,59.733c0-4.719,3.814-8.533,8.533-8.533H217.6c4.71,0,8.533,3.814,8.533,8.533v34.133
				c0,4.719-3.823,8.533-8.533,8.533h-34.133c-4.719,0-8.533-3.814-8.533-8.533V59.733z M115.2,102.4
				c-4.719,0-8.533-3.814-8.533-8.533V59.733c0-4.719,3.814-8.533,8.533-8.533h34.133c4.71,0,8.533,3.814,8.533,8.533v34.133
				c0,4.719-3.823,8.533-8.533,8.533H115.2z M149.333,375.467H140.8v-34.133H192l0.009,34.133h-8.542H149.333z"/>
		</g>
	</g>
</g>
</svg>