<?xml version="1.0" encoding="UTF-8" standalone="no"?>
<!-- Creator: CorelDRAW 2018 (64-Bit) -->

<svg
   xml:space="preserve"
   width="163.7227mm"
   height="47.973mm"
   version="1.1"
   style="clip-rule:evenodd;fill-rule:evenodd;image-rendering:optimizeQuality;shape-rendering:geometricPrecision;text-rendering:geometricPrecision"
   viewBox="0 0 16372.27 4797.3"
   id="svg10"
   sodipodi:docname="logo.svg"
   inkscape:version="1.2.1 (9c6d41e410, 2022-07-14)"
   xmlns:inkscape="http://www.inkscape.org/namespaces/inkscape"
   xmlns:sodipodi="http://sodipodi.sourceforge.net/DTD/sodipodi-0.dtd"
   xmlns="http://www.w3.org/2000/svg"
   xmlns:svg="http://www.w3.org/2000/svg"><sodipodi:namedview
   id="namedview12"
   pagecolor="#ffffff"
   bordercolor="#666666"
   borderopacity="1.0"
   inkscape:showpageshadow="2"
   inkscape:pageopacity="0.0"
   inkscape:pagecheckerboard="0"
   inkscape:deskcolor="#d1d1d1"
   inkscape:document-units="mm"
   showgrid="false"
   inkscape:zoom="0.93196517"
   inkscape:cx="69.745095"
   inkscape:cy="90.132123"
   inkscape:window-width="1920"
   inkscape:window-height="1008"
   inkscape:window-x="0"
   inkscape:window-y="36"
   inkscape:window-maximized="1"
   inkscape:current-layer="Слой_x0020_1" />
 <defs
   id="defs4"><style
     type="text/css"
     id="style2">
   <![CDATA[
    .fil0 {fill:#336699}
   ]]>
  </style></defs>
 <g
   id="Слой_x0020_1"
   inkscape:label="Слой 1"
   inkscape:groupmode="layer"
   transform="translate(-3313.86,-951.35)">
  <metadata
   id="CorelCorpID_0Corel-Layer" />
  <path
   class="fil0"
   d="m 3767.81,951.35 h 15464.38 c 249.66,0 453.94,204.27 453.94,453.95 v 3889.4 c 0,249.68 -204.28,453.95 -453.94,453.95 H 3767.81 c -249.69,0 -453.95,-204.27 -453.95,-453.95 V 1405.3 c 0,-249.68 204.26,-453.95 453.95,-453.95 z m 6725.92,2273.47 1293.21,1616.94 c 24.7,30.87 30.09,70.39 13.17,106.2 -16.92,35.81 -50.9,57.31 -90.4,57.31 h -816.97 c -31.03,0 -58.21,-12.45 -77.46,-36.75 L 10537.5,4617.97 9611.55,3449.42 v 1455.95 c 0,55.07 -44.94,100.01 -100.02,100.01 h -628.84 c -55.07,0 -100.02,-44.94 -100.02,-100.01 V 1794.7 c 0,-55.08 44.95,-100.02 100.02,-100.02 h 628.84 c 55.08,0 100.02,44.94 100.02,100.02 v 1345.38 l 946.73,-1194.81 169.26,-213.6 c 19.25,-24.29 46.42,-36.75 77.46,-36.75 h 702.31 c 39.52,0 73.48,21.5 90.4,57.31 16.92,35.81 11.46,75.34 -13.17,106.2 z m 1467.35,-1184.75 217.79,274.01 1113.01,1400.3 1191.16,-1455.95 427.03,-521.96 c 27.37,-33.43 70.77,-45.4 111.36,-30.74 40.59,14.66 66.07,51.81 66.07,94.81 l 0.4,998.85 c 0,23.65 -7.68,44.31 -22.56,62.58 L 13372.95,4933.3 c -19.64,24.05 -46.78,36.87 -77.98,36.7 -31.2,-0.17 -58.22,-13.22 -77.63,-37.56 l -1803.4,-2261.18 c -29.03,-36.41 -29.54,-86.62 -1.03,-123.54 l 390.85,-506.44 c 19.41,-25.19 46.6,-38.71 78.32,-38.88 31.71,-0.17 59.37,13.06 79,37.67 z M 7451.87,4905.39 V 2936.34 c 0,-55.08 44.92,-100 100,-100 h 628.88 c 55.1,0 100.03,44.96 100,100.06 0,1431.3 0,615.99 0,1968.95 0.02,55.09 -44.91,100.04 -100,100.04 h -628.88 c -55.08,0 -100,-44.92 -100,-100 z m 100.04,-3210.77 h 628.76 c 55.08,0 100,44.92 100,100 v 628.87 c 0,55.09 -44.93,100.01 -100.02,100 -440.91,0 -216.62,0 -628.72,0 -55.09,0.01 -100.02,-44.91 -100.02,-100 v -628.87 c 0,-55.08 44.92,-100 100,-100 z M 5173.35,3902.61 v 1002.75 c 0,55.08 -44.92,100 -100,100 h -633.7 c -55.08,0 -100,-44.92 -100,-100 V 1794.63 c 0,-55.08 44.92,-100 100,-100 709.09,0 1501.32,0.11 2210.31,0.12 165.22,0 299.99,134.77 299.99,300 0,591.73 0,1015.89 0,1607.61 0,165.24 -134.78,300 -300.01,300 -464.44,0 -1011.85,-0.03 -1476.59,0.25 z m 947.72,-644.42 v -947.72 h -947.72 v 947.72 z m 9280.02,1647.18 V 1794.7 c 0,-55.08 44.94,-100.02 100.02,-100.02 h 582.87 c 31.49,0 58.62,13.05 78.2,37.67 l 869.56,1091.1 869.56,-1091.1 c 19.58,-24.62 46.71,-37.67 78.2,-37.67 h 582.87 c 55.08,0 100.02,44.94 100.02,100.02 v 3110.67 c 0,55.07 -44.94,100.01 -100.02,100.01 h -619.11 c -55.07,0 -100.01,-44.94 -100.01,-100.01 V 2956.6 l -733.62,911.25 c -19.63,24.39 -46.58,37.29 -77.89,37.29 -31.31,0 -58.25,-12.9 -77.89,-37.29 l -733.62,-911.25 v 1948.77 c 0,55.07 -44.94,100.01 -100.01,100.01 h -619.11 c -55.08,0 -100.02,-44.94 -100.02,-100.01 z"
   id="path7"
   style="fill:#000000" />
 </g>
</svg>
