<?xml version="1.0" encoding="UTF-8" standalone="no"?>
<!-- Created with Inkscape (http://www.inkscape.org/) -->

<svg
   xmlns:dc="http://purl.org/dc/elements/1.1/"
   xmlns:cc="http://creativecommons.org/ns#"
   xmlns:rdf="http://www.w3.org/1999/02/22-rdf-syntax-ns#"
   xmlns:svg="http://www.w3.org/2000/svg"
   xmlns="http://www.w3.org/2000/svg"
   xmlns:sodipodi="http://sodipodi.sourceforge.net/DTD/sodipodi-0.dtd"
   xmlns:inkscape="http://www.inkscape.org/namespaces/inkscape"
   width="16.933332mm"
   height="16.933332mm"
   viewBox="0 0 16.933332 16.933332"
   version="1.1"
   id="svg8"
   sodipodi:docname="msd.svg"
   inkscape:version="0.92.2 2405546, 2018-03-11">
  <defs
     id="defs2" />
  <sodipodi:namedview
     id="base"
     pagecolor="#ffffff"
     bordercolor="#666666"
     borderopacity="1.0"
     inkscape:pageopacity="0.0"
     inkscape:pageshadow="2"
     inkscape:zoom="5.6"
     inkscape:cx="-7.1450758"
     inkscape:cy="12.600068"
     inkscape:document-units="mm"
     inkscape:current-layer="layer1"
     showgrid="false"
     fit-margin-top="0"
     fit-margin-left="0"
     fit-margin-right="0"
     fit-margin-bottom="0"
     inkscape:window-width="1920"
     inkscape:window-height="1020"
     inkscape:window-x="0"
     inkscape:window-y="30"
     inkscape:window-maximized="1" />
  <metadata
     id="metadata5">
    <rdf:RDF>
      <cc:Work
         rdf:about="">
        <dc:format>image/svg+xml</dc:format>
        <dc:type
           rdf:resource="http://purl.org/dc/dcmitype/StillImage" />
        <dc:title></dc:title>
      </cc:Work>
    </rdf:RDF>
  </metadata>
  <g
     inkscape:label="Layer 1"
     inkscape:groupmode="layer"
     id="layer1"
     transform="translate(-107.87666,-24.618942)">
    <flowRoot
       xml:space="preserve"
       id="flowRoot5064"
       style="fill:black;stroke:none;stroke-opacity:1;stroke-width:1px;stroke-linejoin:miter;stroke-linecap:butt;fill-opacity:1;font-family:Adobe Garamond Pro;font-style:normal;font-weight:bold;font-size:10px;line-height:125%;letter-spacing:0px;word-spacing:0px;-inkscape-font-specification:Adobe Garamond Pro Bold;font-stretch:normal;font-variant:normal;text-anchor:start;text-align:start;writing-mode:lr"><flowRegion
         id="flowRegion5066"><rect
           id="rect5068"
           width="50.892857"
           height="43.57143"
           x="-72.321426"
           y="5.4285674" /></flowRegion><flowPara
         id="flowPara5070"></flowPara></flowRoot>    <g
       aria-label="✇"
       transform="matrix(2.2460794,0,0,2.2388294,309.08063,12.073626)"
       style="font-style:normal;font-variant:normal;font-weight:bold;font-stretch:normal;font-size:10px;line-height:125%;font-family:'Adobe Garamond Pro';-inkscape-font-specification:'Adobe Garamond Pro Bold';text-align:start;letter-spacing:0px;word-spacing:0px;writing-mode:lr-tb;text-anchor:start;fill:#000000;fill-opacity:1;stroke:none;stroke-width:0.11798844px;stroke-linecap:butt;stroke-linejoin:miter;stroke-opacity:1"
       id="flowRoot5115">
      <path
         d="m -87.924805,11.194336 q -0.307617,-0.356445 -0.46875,-0.74707 -0.0293,-0.07324 -0.05371,-0.146485 l 1.455079,-1.2353513 q -0.03906,0.1464844 -0.03906,0.3125 0,0.2441406 0.09277,0.4638672 0.09277,0.2246091 0.268555,0.4003911 0.15625,0.15625 0.395508,0.263671 0.09766,0.04395 0.136719,0.04883 z m 2.973633,-2.6855469 q -0.175781,-0.1660157 -0.395508,-0.2636719 -0.209961,-0.092773 -0.463867,-0.092773 -0.253906,0 -0.463867,0.092773 -0.219727,0.097656 -0.395508,0.2636719 l 0.341797,-1.8896485 q 0.249023,-0.043945 0.517578,-0.043945 0.273438,0 0.517578,0.043945 z m 0.322266,0.5566406 1.455078,1.2353513 q -0.0098,0.03418 -0.05371,0.146485 -0.161133,0.390625 -0.46875,0.74707 l -1.787109,-0.639648 q 0.06836,-0.01953 0.136718,-0.04883 0.239258,-0.107421 0.395508,-0.263671 0.175781,-0.175782 0.268555,-0.4003911 0.09277,-0.2197266 0.09277,-0.4638672 0,-0.1611328 -0.03906,-0.312499 z m -1.459961,-0.3710938 q 0.126953,-0.053711 0.27832,-0.053711 0.151367,0 0.27832,0.053711 0.131836,0.058594 0.239258,0.1611329 0.107422,0.1123046 0.161133,0.2392578 0.05371,0.1318359 0.05371,0.2832031 0,0.1464844 -0.05371,0.2783203 -0.05371,0.1269531 -0.161133,0.2392578 -0.107422,0.1025391 -0.239258,0.1611332 -0.126953,0.05371 -0.27832,0.05371 -0.151367,0 -0.27832,-0.05371 -0.131836,-0.058594 -0.239258,-0.1611332 -0.107422,-0.1123047 -0.161133,-0.2392578 -0.05371,-0.1318359 -0.05371,-0.2783203 0,-0.1513672 0.05371,-0.2832031 0.05371,-0.1269532 0.161133,-0.2392578 0.107422,-0.1025391 0.239258,-0.1611329 z m 0.27832,-2.602539 q -0.654297,0 -1.259765,0.2490234 -0.581055,0.2392578 -1.059571,0.7226563 -0.488281,0.4882812 -0.722656,1.0644531 -0.239258,0.5810547 -0.239258,1.2695312 0,0.6494141 0.239258,1.2451171 0.239258,0.581055 0.722656,1.064453 0.46875,0.473633 1.059571,0.722657 0.59082,0.249023 1.259765,0.249023 0.664063,0 1.259766,-0.249023 0.581054,-0.239258 1.05957,-0.722657 0.488281,-0.488281 0.722656,-1.064453 0.239258,-0.581055 0.239258,-1.2451171 0,-0.6884765 -0.239258,-1.2695312 -0.224609,-0.5517578 -0.722656,-1.0644531 -0.463867,-0.46875 -1.05957,-0.7226563 -0.585938,-0.2490234 -1.259766,-0.2490234 z m 0,-0.4882813 q 0.751953,0 1.445313,0.288086 0.654297,0.2734375 1.21582,0.8300781 0.546875,0.5419922 0.830078,1.2207031 0.27832,0.6689453 0.27832,1.4550781 0,0.7421871 -0.27832,1.4306641 -0.258789,0.639648 -0.830078,1.220703 -0.537109,0.546875 -1.21582,0.830078 -0.688477,0.288086 -1.445313,0.288086 -0.751953,0 -1.445312,-0.288086 -0.654297,-0.273437 -1.215821,-0.830078 -0.546875,-0.541992 -0.830078,-1.220703 -0.27832,-0.668945 -0.27832,-1.4306641 0,-0.7666015 0.27832,-1.4550781 0.258789,-0.6396484 0.830078,-1.2207031 0.527344,-0.5371094 1.215821,-0.8300781 0.683593,-0.288086 1.445312,-0.288086 z"
         style="stroke-width:0.11798844px"
         id="path5123"
         inkscape:connector-curvature="0" />
    </g>
  </g>
</svg>
