<?xml version="1.0" encoding="iso-8859-1"?>
<!-- Generator: Adobe Illustrator 16.0.0, SVG Export Plug-In . SVG Version: 6.00 Build 0)  -->
<!DOCTYPE svg PUBLIC "-//W3C//DTD SVG 1.1//EN" "http://www.w3.org/Graphics/SVG/1.1/DTD/svg11.dtd">
<svg version="1.1" id="Capa_1" xmlns="http://www.w3.org/2000/svg" xmlns:xlink="http://www.w3.org/1999/xlink" x="0px" y="0px"
	 width="456.793px" height="456.793px" viewBox="0 0 456.793 456.793" style="enable-background:new 0 0 456.793 456.793;"
	 xml:space="preserve">
<g>
	<g>
		<path d="M448.947,218.474c-0.922-1.168-23.055-28.933-61-56.81c-50.707-37.253-105.879-56.944-159.551-56.944
			c-53.673,0-108.845,19.691-159.551,56.944c-37.944,27.876-60.077,55.642-61,56.81L0,228.396l7.845,9.923
			c0.923,1.168,23.056,28.934,61,56.811c50.707,37.254,105.878,56.943,159.551,56.943c53.672,0,108.844-19.689,159.551-56.943
			c37.945-27.877,60.078-55.643,61-56.811l7.846-9.923L448.947,218.474z M228.396,312.096c-46.152,0-83.699-37.548-83.699-83.699
			c0-46.152,37.547-83.699,83.699-83.699s83.7,37.547,83.7,83.699C312.096,274.548,274.548,312.096,228.396,312.096z
			 M41.685,228.396c9.197-9.872,25.32-25.764,46.833-41.478c13.911-10.16,31.442-21.181,51.772-30.305
			c-15.989,19.589-25.593,44.584-25.593,71.782s9.604,52.193,25.593,71.782c-20.329-9.124-37.861-20.146-51.771-30.306
			C67.002,254.159,50.878,238.265,41.685,228.396z M368.273,269.874c-13.912,10.16-31.443,21.182-51.771,30.306
			c15.988-19.589,25.594-44.584,25.594-71.782s-9.605-52.193-25.594-71.782c20.33,9.124,37.861,20.146,51.771,30.305
			c21.516,15.715,37.639,31.609,46.832,41.477C405.91,238.268,389.785,254.161,368.273,269.874z"/>
		<path d="M223.646,168.834c-27.513,4-50.791,31.432-41.752,59.562c8.23-20.318,25.457-33.991,45.795-32.917
			c16.336,0.863,33.983,18.237,33.59,32.228c1.488,22.407-12.725,39.047-32.884,47.191c46.671,15.21,73.197-44.368,51.818-79.352
			C268.232,175.942,245.969,166.23,223.646,168.834z"/>
	</g>
</g>
<g>
</g>
<g>
</g>
<g>
</g>
<g>
</g>
<g>
</g>
<g>
</g>
<g>
</g>
<g>
</g>
<g>
</g>
<g>
</g>
<g>
</g>
<g>
</g>
<g>
</g>
<g>
</g>
<g>
</g>
</svg>
