<?xml version="1.0" encoding="utf-8"?>
<!-- Generator: Adobe Illustrator 17.0.0, SVG Export Plug-In . SVG Version: 6.00 Build 0)  -->
<!DOCTYPE svg PUBLIC "-//W3C//DTD SVG 1.0//EN" "http://www.w3.org/TR/2001/REC-SVG-20010904/DTD/svg10.dtd">
<svg version="1.0" xmlns="http://www.w3.org/2000/svg" xmlns:xlink="http://www.w3.org/1999/xlink" x="0px" y="0px"
	 width="265.4766846px" height="233.2780151px" viewBox="0 0 265.4766846 233.2780151"
	 enable-background="new 0 0 265.4766846 233.2780151" xml:space="preserve">
<g id="Icon">
	<g id="Signboard">
		<path fill="#010100" d="M12.5276556,233.2779999c-4.4623718,0-8.6218128-2.401001-10.8545284-6.2661896
			c-2.2306759-3.8661957-2.2306759-8.6682129-0.00102-12.5328827L121.883812,6.2666974
			c2.2327194-3.865689,6.3911362-6.2667003,10.8545303-6.2667003s8.6218109,2.401011,10.8545227,6.2661901l120.2106934,208.2117157
			c2.2306824,3.8656921,2.2306824,8.6677094,0.0010071,12.5323792c-2.2337341,3.8667145-6.393158,6.2677155-10.8555298,6.2677155
			H12.5276556z"/>
		<path fill="#FFDB00" d="M12.5274048,223.2783966c-0.8886719,0-1.75-0.4980469-2.1962891-1.2695313
			c-0.4414063-0.765625-0.4414063-1.7626953,0.0029297-2.5341797L130.5440063,11.2666779
			c0.4443359-0.769043,1.3056641-1.2666016,2.1943359-1.2666016s1.75,0.4975586,2.1953125,1.2675781l120.2099609,208.2099609
			c0.4433594,0.7685547,0.4433594,1.7646484-0.0009766,2.5351563c-0.4423828,0.7666016-1.3046875,1.265625-2.1933594,1.265625
			H12.5274048z"/>
	</g>
	<g id="Graphic">
		<path id="path37169" d="M117.9776917,75.1996231c0-16.8840446,29.5213013-16.7991524,29.5213013,0l-7.7432861,88.7607346
			c0,6.9947052-13.7927399,7.0144653-13.7927399,0L117.9776917,75.1996231z"/>
		<ellipse cx="132.7383423" cy="189.3726196" rx="14.7001534" ry="15.0053892"/>
	</g>
</g>
<g>
</g>
<g>
</g>
<g>
</g>
<g>
</g>
<g>
</g>
</svg>
