<?xml version="1.0" standalone="no"?>
<!DOCTYPE svg PUBLIC "-//W3C//DTD SVG 20010904//EN"
 "http://www.w3.org/TR/2001/REC-SVG-20010904/DTD/svg10.dtd">
<svg version="1.0" xmlns="http://www.w3.org/2000/svg"
 width="700.000000pt" height="700.000000pt" viewBox="0 0 700.000000 700.000000"
 preserveAspectRatio="xMidYMid meet">
<metadata>
Created by potrace 1.11, written by Peter Selinger 2001-2013
</metadata>
<g transform="translate(0.000000,700.000000) scale(0.100000,-0.100000)"
fill="#000000" stroke="none">
<path d="M6751 6444 c-48 -27 -168 -60 -246 -69 -27 -3 -66 -7 -85 -10 -248
-33 -521 -37 -2640 -41 -1070 -1 -1972 -5 -2005 -8 -213 -17 -219 -18 -345
-36 -112 -17 -109 -16 -216 -44 -323 -86 -576 -242 -779 -481 -56 -66 -155
-210 -155 -225 0 -5 -4 -10 -8 -12 -4 -1 -30 -48 -58 -103 -90 -179 -155 -383
-170 -540 -10 -101 -11 -275 -2 -310 4 -16 10 -46 13 -65 3 -19 16 -52 28 -73
54 -97 143 -78 233 51 62 88 203 227 284 280 156 103 366 178 635 226 17 3 39
8 50 10 11 2 47 7 80 11 33 4 71 9 85 11 29 4 138 13 225 20 131 10 435 16
435 8 0 -5 -6 -45 -14 -89 -24 -132 -27 -149 -32 -180 -2 -16 -6 -41 -9 -55
-3 -14 -7 -38 -10 -55 -2 -16 -14 -75 -25 -130 -11 -55 -23 -116 -26 -135 -3
-19 -7 -43 -10 -52 -3 -10 -7 -30 -10 -45 -11 -67 -89 -401 -125 -538 -134
-505 -266 -869 -451 -1252 -165 -340 -356 -581 -608 -762 -137 -99 -205 -177
-263 -299 -32 -67 -32 -68 -32 -227 0 -179 14 -251 69 -365 80 -166 272 -285
516 -319 70 -10 310 -8 327 2 5 3 25 9 44 12 99 18 233 93 325 183 205 202
410 674 508 1167 9 44 19 91 22 105 3 14 7 36 10 50 3 14 18 88 34 166 16 77
32 156 35 175 3 19 17 88 30 154 34 172 93 484 99 525 6 38 22 130 30 170 3
14 10 54 16 90 5 36 12 74 14 85 2 11 7 40 11 65 4 25 9 54 11 65 6 39 44 260
48 285 3 14 25 153 51 310 25 157 50 312 55 345 6 33 12 74 15 90 7 45 45 287
50 314 2 13 8 45 12 70 4 25 8 49 9 54 1 4 2 12 3 17 1 7 305 10 890 10 l889
0 -55 -132 c-30 -73 -66 -162 -80 -198 -13 -36 -29 -74 -34 -85 -72 -163 -402
-1051 -462 -1245 -24 -75 -82 -284 -92 -329 -15 -66 -65 -314 -70 -346 -3 -22
-10 -67 -15 -100 -5 -33 -12 -89 -15 -125 -4 -36 -8 -72 -10 -80 -9 -34 -19
-266 -18 -415 1 -184 6 -247 38 -460 20 -136 80 -317 143 -435 66 -124 178
-249 309 -346 138 -103 225 -145 385 -184 115 -28 149 -31 343 -35 457 -8 846
117 1220 391 172 126 401 387 504 574 78 142 148 289 195 407 47 118 57 154
58 210 5 169 -63 240 -198 208 -67 -16 -102 -39 -173 -119 -195 -218 -357
-342 -513 -394 -110 -37 -141 -43 -230 -47 -92 -4 -150 9 -234 50 -179 88
-322 320 -383 625 -33 163 -40 277 -36 615 3 187 6 358 9 380 2 22 7 85 11
140 3 55 8 114 10 130 4 28 10 85 20 180 3 22 7 56 10 75 2 19 7 55 10 80 3
25 8 56 10 70 3 14 7 39 9 55 7 43 35 206 41 235 3 14 9 50 15 80 15 82 16 86
45 215 29 133 83 347 89 352 2 2 91 6 197 8 182 4 372 13 408 20 9 1 36 6 61
10 247 37 373 127 512 363 96 162 200 460 224 637 3 28 9 70 13 95 4 25 7 89
7 143 -1 95 -2 100 -29 123 -34 29 -59 29 -116 -2z"/>
</g>
</svg>
